[2026-03-24T23:23:53] SOURCE: D:\apps\ErsatzTV-HLS-Copy-Prep\source\03.mp4
[2026-03-24T23:23:53] TARGET: D:\apps\ErsatzTV-HLS-Copy-Prep\target\03.mp4
[2026-03-24T23:23:53] FPS: 25.000000
[2026-03-24T23:23:53] CMD: ["D:\\apps\\ErsatzTV-HLS-Copy-Prep\\bin\\ffmpeg.exe", "-y", "-hide_banner", "-loglevel", "info", "-stats_period", "5", "-progress", "pipe:1", "-i", "D:\\apps\\ErsatzTV-HLS-Copy-Prep\\source\\03.mp4", "-map", "0:v:0", "-map", "0:a:0?", "-sn", "-dn", "-vf", "scale=trunc(iw/2)*2:trunc(ih/2)*2,setsar=1,fps=25", "-c:v", "libx264", "-preset", "medium", "-crf", "18", "-pix_fmt", "yuv420p", "-profile:v", "high", "-level", "4.1", "-g", "25", "-keyint_min", "25", "-sc_threshold", "0", "-bf", "0", "-force_key_frames", "expr:gte(t,n_forced*1)", "-c:a", "aac", "-b:a", "192k", "-ar", "48000", "-ac", "2", "-movflags", "+faststart", "D:\\apps\\ErsatzTV-HLS-Copy-Prep\\target\\03.mp4"]

ffmpeg stats and -progress period set to 5.
Input #0, mov,mp4,m4a,3gp,3g2,mj2, from 'D:\apps\ErsatzTV-HLS-Copy-Prep\source\03.mp4':
  Metadata:
    major_brand     : isom
    minor_version   : 512
    compatible_brands: isomiso2avc1mp41
    date            : 2023-08-18T12:01:31.4015213+08:00
    encoder         : Lavf58.32.104
  Duration: 00:25:49.42, start: 0.000000, bitrate: 1669 kb/s
  Stream #0:0[0x1](und): Video: h264 (High) (avc1 / 0x31637661), yuv420p(tv, bt709, progressive), 1920x1080 [SAR 1:1 DAR 16:9], 1570 kb/s, 25 fps, 25 tbr, 90k tbn (default)
      Metadata:
        handler_name    : VideoHandler
        vendor_id       : [0][0][0][0]
  Stream #0:1[0x2](und): Audio: aac (LC) (mp4a / 0x6134706D), 48000 Hz, stereo, fltp, 93 kb/s (default)
      Metadata:
        handler_name    : SoundHandler
        vendor_id       : [0][0][0][0]
Stream mapping:
  Stream #0:0 -> #0:0 (h264 (native) -> h264 (libx264))
  Stream #0:1 -> #0:1 (aac (native) -> aac (native))
Press [q] to stop, [?] for help
[libx264 @ 000001d2d5d01b40] using SAR=1/1
[libx264 @ 000001d2d5d01b40] using cpu capabilities: MMX2 SSE2Fast SSSE3 SSE4.2 AVX
[libx264 @ 000001d2d5d01b40] profile High, level 4.1, 4:2:0, 8-bit
[libx264 @ 000001d2d5d01b40] 264 - core 165 - H.264/MPEG-4 AVC codec - Copyleft 2003-2025 - http://www.videolan.org/x264.html - options: cabac=1 ref=3 deblock=1:0:0 analyse=0x3:0x113 me=hex subme=7 psy=1 psy_rd=1.00:0.00 mixed_ref=1 me_range=16 chroma_me=1 trellis=1 8x8dct=1 cqm=0 deadzone=21,11 fast_pskip=1 chroma_qp_offset=-2 threads=12 lookahead_threads=2 sliced_threads=0 nr=0 decimate=1 interlaced=0 bluray_compat=0 constrained_intra=0 bframes=0 weightp=2 keyint=25 keyint_min=13 scenecut=0 intra_refresh=0 rc_lookahead=25 rc=crf mbtree=1 crf=18.0 qcomp=0.60 qpmin=0 qpmax=69 qpstep=4 ip_ratio=1.40 aq=1:1.00
Output #0, mp4, to 'D:\apps\ErsatzTV-HLS-Copy-Prep\target\03.mp4':
  Metadata:
    major_brand     : isom
    minor_version   : 512
    compatible_brands: isomiso2avc1mp41
    date            : 2023-08-18T12:01:31.4015213+08:00
    encoder         : Lavf61.7.100
  Stream #0:0(und): Video: h264 (avc1 / 0x31637661), yuv420p(tv, bt709, progressive), 1920x1080 [SAR 1:1 DAR 16:9], q=2-31, 25 fps, 12800 tbn (default)
      Metadata:
        handler_name    : VideoHandler
        vendor_id       : [0][0][0][0]
        encoder         : Lavc61.19.101 libx264
      Side data:
        cpb: bitrate max/min/avg: 0/0/0 buffer size: 0 vbv_delay: N/A
  Stream #0:1(und): Audio: aac (LC) (mp4a / 0x6134706D), 48000 Hz, stereo, fltp, 192 kb/s (default)
      Metadata:
        handler_name    : SoundHandler
        vendor_id       : [0][0][0][0]
        encoder         : Lavc61.19.101 aac
frame=  308 fps= 61 q=23.0 size=    2048KiB time=00:00:12.36 bitrate=1357.4kbits/s speed=2.46x    
frame=308
fps=61.38
stream_0_0_q=23.0
bitrate=1357.4kbits/s
total_size=2097200
out_time_us=12360000
out_time_ms=12360000
out_time=00:00:12.360000
dup_frames=0
drop_frames=0
speed=2.46x
progress=continue
frame=  527 fps= 52 q=23.0 size=    5376KiB time=00:00:21.12 bitrate=2085.3kbits/s speed= 2.1x    
frame=527
fps=52.50
stream_0_0_q=23.0
bitrate=2085.3kbits/s
total_size=5505072
out_time_us=21120000
out_time_ms=21120000
out_time=00:00:21.120000
dup_frames=0
drop_frames=0
speed= 2.1x
progress=continue
frame=  666 fps= 44 q=23.0 size=    9216KiB time=00:00:26.64 bitrate=2834.0kbits/s speed=1.77x    
frame=666
fps=44.21
stream_0_0_q=23.0
bitrate=2834.0kbits/s
total_size=9437232
out_time_us=26640000
out_time_ms=26640000
out_time=00:00:26.640000
dup_frames=0
drop_frames=0
speed=1.77x
progress=continue
frame=  812 fps= 40 q=23.0 size=   13312KiB time=00:00:32.52 bitrate=3353.4kbits/s speed=1.62x    
frame=812
fps=40.39
stream_0_0_q=23.0
bitrate=3353.4kbits/s
total_size=13631536
out_time_us=32520000
out_time_ms=32520000
out_time=00:00:32.520000
dup_frames=0
drop_frames=0
speed=1.62x
progress=continue
frame=  922 fps= 37 q=23.0 size=   16640KiB time=00:00:36.92 bitrate=3692.2kbits/s speed=1.47x    
frame=922
fps=36.70
stream_0_0_q=23.0
bitrate=3692.2kbits/s
total_size=17039408
out_time_us=36920000
out_time_ms=36920000
out_time=00:00:36.920000
dup_frames=0
drop_frames=0
speed=1.47x
progress=continue
frame= 1044 fps= 35 q=23.0 size=   20480KiB time=00:00:41.80 bitrate=4013.7kbits/s speed=1.39x    
frame=1044
fps=34.62
stream_0_0_q=23.0
bitrate=4013.7kbits/s
total_size=20971568
out_time_us=41800000
out_time_ms=41800000
out_time=00:00:41.800000
dup_frames=0
drop_frames=0
speed=1.39x
progress=continue
frame= 1137 fps= 32 q=23.0 size=   24320KiB time=00:00:45.52 bitrate=4376.8kbits/s speed=1.29x    
frame=1137
fps=32.32
stream_0_0_q=23.0
bitrate=4376.8kbits/s
total_size=24903728
out_time_us=45520000
out_time_ms=45520000
out_time=00:00:45.520000
dup_frames=0
drop_frames=0
speed=1.29x
progress=continue
frame= 1247 fps= 31 q=23.0 size=   28416KiB time=00:00:49.88 bitrate=4666.9kbits/s speed=1.24x    
frame=1247
fps=31.02
stream_0_0_q=23.0
bitrate=4666.9kbits/s
total_size=29098032
out_time_us=49880000
out_time_ms=49880000
out_time=00:00:49.880000
dup_frames=0
drop_frames=0
speed=1.24x
progress=continue
frame= 1380 fps= 31 q=23.0 size=   32256KiB time=00:00:55.24 bitrate=4783.5kbits/s speed=1.22x    
frame=1380
fps=30.50
stream_0_0_q=23.0
bitrate=4783.5kbits/s
total_size=33030192
out_time_us=55240000
out_time_ms=55240000
out_time=00:00:55.240000
dup_frames=0
drop_frames=0
speed=1.22x
progress=continue
frame= 1487 fps= 30 q=23.0 size=   36864KiB time=00:00:59.52 bitrate=5073.8kbits/s speed=1.18x    
frame=1487
fps=29.59
stream_0_0_q=23.0
bitrate=5073.8kbits/s
total_size=37748784
out_time_us=59520000
out_time_ms=59520000
out_time=00:00:59.520000
dup_frames=0
drop_frames=0
speed=1.18x
progress=continue
frame= 1570 fps= 28 q=23.0 size=   40960KiB time=00:01:02.84 bitrate=5339.7kbits/s speed=1.14x    
frame=1570
fps=28.41
stream_0_0_q=23.0
bitrate=5339.7kbits/s
total_size=41943088
out_time_us=62840000
out_time_ms=62840000
out_time=00:01:02.840000
dup_frames=0
drop_frames=0
speed=1.14x
progress=continue
frame= 1664 fps= 28 q=23.0 size=   45312KiB time=00:01:06.60 bitrate=5573.5kbits/s speed= 1.1x    
frame=1664
fps=27.59
stream_0_0_q=23.0
bitrate=5573.5kbits/s
total_size=46399536
out_time_us=66600000
out_time_ms=66600000
out_time=00:01:06.600000
dup_frames=0
drop_frames=0
speed= 1.1x
progress=continue
frame= 1781 fps= 27 q=23.0 size=   50176KiB time=00:01:11.28 bitrate=5766.6kbits/s speed=1.09x    
frame=1781
fps=27.26
stream_0_0_q=23.0
bitrate=5766.6kbits/s
total_size=51380272
out_time_us=71280000
out_time_ms=71280000
out_time=00:01:11.280000
dup_frames=0
drop_frames=0
speed=1.09x
progress=continue
frame= 1885 fps= 27 q=23.0 size=   53760KiB time=00:01:15.44 bitrate=5837.8kbits/s speed=1.07x    
frame=1885
fps=26.80
stream_0_0_q=23.0
bitrate=5837.8kbits/s
total_size=55050288
out_time_us=75440000
out_time_ms=75440000
out_time=00:01:15.440000
dup_frames=0
drop_frames=0
speed=1.07x
progress=continue
frame= 1997 fps= 26 q=23.0 size=   57856KiB time=00:01:19.92 bitrate=5930.4kbits/s speed=1.06x    
frame=1997
fps=26.50
stream_0_0_q=23.0
bitrate=5930.4kbits/s
total_size=59244592
out_time_us=79920000
out_time_ms=79920000
out_time=00:01:19.920000
dup_frames=0
drop_frames=0
speed=1.06x
progress=continue
frame= 2088 fps= 26 q=23.0 size=   61440KiB time=00:01:23.56 bitrate=6023.4kbits/s speed=1.04x    
frame=2088
fps=25.98
stream_0_0_q=23.0
bitrate=6023.4kbits/s
total_size=62914608
out_time_us=83560000
out_time_ms=83560000
out_time=00:01:23.560000
dup_frames=0
drop_frames=0
speed=1.04x
progress=continue
frame= 2208 fps= 26 q=23.0 size=   65536KiB time=00:01:28.36 bitrate=6076.0kbits/s speed=1.03x    
frame=2208
fps=25.85
stream_0_0_q=23.0
bitrate=6076.0kbits/s
total_size=67108912
out_time_us=88360000
out_time_ms=88360000
out_time=00:01:28.360000
dup_frames=0
drop_frames=0
speed=1.03x
progress=continue
frame= 2351 fps= 26 q=23.0 size=   70144KiB time=00:01:34.08 bitrate=6107.8kbits/s speed=1.04x    
frame=2351
fps=26.00
stream_0_0_q=23.0
bitrate=6107.8kbits/s
total_size=71827504
out_time_us=94080000
out_time_ms=94080000
out_time=00:01:34.080000
dup_frames=0
drop_frames=0
speed=1.04x
progress=continue
frame= 2482 fps= 26 q=23.0 size=   74752KiB time=00:01:39.32 bitrate=6165.6kbits/s speed=1.04x    
frame=2482
fps=26.01
stream_0_0_q=23.0
bitrate=6165.6kbits/s
total_size=76546096
out_time_us=99320000
out_time_ms=99320000
out_time=00:01:39.320000
dup_frames=0
drop_frames=0
speed=1.04x
progress=continue
frame= 2614 fps= 26 q=23.0 size=   79360KiB time=00:01:44.56 bitrate=6217.7kbits/s speed=1.04x    
frame=2614
fps=26.02
stream_0_0_q=23.0
bitrate=6217.7kbits/s
total_size=81264688
out_time_us=104560000
out_time_ms=104560000
out_time=00:01:44.560000
dup_frames=0
drop_frames=0
speed=1.04x
progress=continue
frame= 2787 fps= 26 q=23.0 size=   84736KiB time=00:01:51.52 bitrate=6224.5kbits/s speed=1.06x    
frame=2787
fps=26.42
stream_0_0_q=23.0
bitrate=6224.5kbits/s
total_size=86769712
out_time_us=111520000
out_time_ms=111520000
out_time=00:01:51.520000
dup_frames=0
drop_frames=0
speed=1.06x
progress=continue
frame= 3088 fps= 28 q=23.0 size=   87040KiB time=00:02:03.56 bitrate=5770.7kbits/s speed=1.12x    
frame=3088
fps=27.94
stream_0_0_q=23.0
bitrate=5770.7kbits/s
total_size=89129008
out_time_us=123560000
out_time_ms=123560000
out_time=00:02:03.560000
dup_frames=0
drop_frames=0
speed=1.12x
progress=continue
frame= 3237 fps= 28 q=23.0 size=   90112KiB time=00:02:09.52 bitrate=5699.5kbits/s speed=1.12x    
frame=3237
fps=28.02
stream_0_0_q=23.0
bitrate=5699.5kbits/s
total_size=92274736
out_time_us=129520000
out_time_ms=129520000
out_time=00:02:09.520000
dup_frames=0
drop_frames=0
speed=1.12x
progress=continue
frame= 3397 fps= 28 q=23.0 size=   93440KiB time=00:02:15.92 bitrate=5631.7kbits/s speed=1.13x    
frame=3397
fps=28.18
stream_0_0_q=23.0
bitrate=5631.7kbits/s
total_size=95682608
out_time_us=135920000
out_time_ms=135920000
out_time=00:02:15.920000
dup_frames=0
drop_frames=0
speed=1.13x
progress=continue
frame= 3624 fps= 29 q=23.0 size=   96512KiB time=00:02:25.00 bitrate=5452.6kbits/s speed=1.15x    
frame=3624
fps=28.86
stream_0_0_q=23.0
bitrate=5452.6kbits/s
total_size=98828336
out_time_us=145000000
out_time_ms=145000000
out_time=00:02:25.000000
dup_frames=0
drop_frames=0
speed=1.15x
progress=continue
frame= 3813 fps= 29 q=23.0 size=  100096KiB time=00:02:32.56 bitrate=5374.8kbits/s speed=1.17x    
frame=3813
fps=29.20
stream_0_0_q=23.0
bitrate=5374.8kbits/s
total_size=102498352
out_time_us=152560000
out_time_ms=152560000
out_time=00:02:32.560000
dup_frames=0
drop_frames=0
speed=1.17x
progress=continue
frame= 4045 fps= 30 q=23.0 size=  103168KiB time=00:02:41.84 bitrate=5222.1kbits/s speed=1.19x    
frame=4045
fps=29.83
stream_0_0_q=23.0
bitrate=5222.1kbits/s
total_size=105644080
out_time_us=161840000
out_time_ms=161840000
out_time=00:02:41.840000
dup_frames=0
drop_frames=0
speed=1.19x
progress=continue
frame= 4266 fps= 30 q=23.0 size=  106240KiB time=00:02:50.68 bitrate=5099.1kbits/s speed=1.21x    
frame=4266
fps=30.33
stream_0_0_q=23.0
bitrate=5099.1kbits/s
total_size=108789808
out_time_us=170680000
out_time_ms=170680000
out_time=00:02:50.680000
dup_frames=0
drop_frames=0
speed=1.21x
progress=continue
frame= 4505 fps= 31 q=23.0 size=  109568KiB time=00:03:00.24 bitrate=4979.9kbits/s speed=1.24x    
frame=4505
fps=30.93
stream_0_0_q=23.0
bitrate=4979.9kbits/s
total_size=112197680
out_time_us=180240000
out_time_ms=180240000
out_time=00:03:00.240000
dup_frames=0
drop_frames=0
speed=1.24x
progress=continue
frame= 4781 fps= 32 q=23.0 size=  112640KiB time=00:03:11.28 bitrate=4824.1kbits/s speed=1.27x    
frame=4781
fps=31.73
stream_0_0_q=23.0
bitrate=4824.1kbits/s
total_size=115343408
out_time_us=191280000
out_time_ms=191280000
out_time=00:03:11.280000
dup_frames=0
drop_frames=0
speed=1.27x
progress=continue
frame= 4986 fps= 32 q=23.0 size=  115712KiB time=00:03:19.48 bitrate=4751.9kbits/s speed=1.28x    
frame=4986
fps=32.02
stream_0_0_q=23.0
bitrate=4751.9kbits/s
total_size=118489136
out_time_us=199480000
out_time_ms=199480000
out_time=00:03:19.480000
dup_frames=0
drop_frames=0
speed=1.28x
progress=continue
frame= 5119 fps= 32 q=23.0 size=  118528KiB time=00:03:24.80 bitrate=4741.1kbits/s speed=1.27x    
frame=5119
fps=31.85
stream_0_0_q=23.0
bitrate=4741.1kbits/s
total_size=121372720
out_time_us=204800000
out_time_ms=204800000
out_time=00:03:24.800000
dup_frames=0
drop_frames=0
speed=1.27x
progress=continue
frame= 5248 fps= 32 q=23.0 size=  121344KiB time=00:03:29.96 bitrate=4734.5kbits/s speed=1.27x    
frame=5248
fps=31.65
stream_0_0_q=23.0
bitrate=4734.5kbits/s
total_size=124256304
out_time_us=209960000
out_time_ms=209960000
out_time=00:03:29.960000
dup_frames=0
drop_frames=0
speed=1.27x
progress=continue
frame= 5438 fps= 32 q=23.0 size=  124928KiB time=00:03:37.56 bitrate=4704.0kbits/s speed=1.27x    
frame=5438
fps=31.84
stream_0_0_q=23.0
bitrate=4704.0kbits/s
total_size=127926320
out_time_us=217560000
out_time_ms=217560000
out_time=00:03:37.560000
dup_frames=0
drop_frames=0
speed=1.27x
progress=continue
frame= 5615 fps= 32 q=20.0 size=  128000KiB time=00:03:44.64 bitrate=4667.8kbits/s speed=1.28x    
frame=5615
fps=31.93
stream_0_0_q=20.0
bitrate=4667.8kbits/s
total_size=131072048
out_time_us=224640000
out_time_ms=224640000
out_time=00:03:44.640000
dup_frames=0
drop_frames=0
speed=1.28x
progress=continue
frame= 5784 fps= 32 q=23.0 size=  131584KiB time=00:03:51.40 bitrate=4658.3kbits/s speed=1.28x    
frame=5784
fps=31.98
stream_0_0_q=23.0
bitrate=4658.3kbits/s
total_size=134742064
out_time_us=231400000
out_time_ms=231400000
out_time=00:03:51.400000
dup_frames=0
drop_frames=0
speed=1.28x
progress=continue
frame= 5980 fps= 32 q=23.0 size=  135168KiB time=00:03:59.24 bitrate=4628.4kbits/s speed=1.29x    
frame=5980
fps=32.17
stream_0_0_q=23.0
bitrate=4628.4kbits/s
total_size=138412080
out_time_us=239240000
out_time_ms=239240000
out_time=00:03:59.240000
dup_frames=0
drop_frames=0
speed=1.29x
progress=continue
frame= 6184 fps= 32 q=23.0 size=  138496KiB time=00:04:07.40 bitrate=4585.9kbits/s speed= 1.3x    
frame=6184
fps=32.39
stream_0_0_q=23.0
bitrate=4585.9kbits/s
total_size=141819952
out_time_us=247400000
out_time_ms=247400000
out_time=00:04:07.400000
dup_frames=0
drop_frames=0
speed= 1.3x
progress=continue
frame= 6431 fps= 33 q=23.0 size=  142336KiB time=00:04:17.24 bitrate=4532.8kbits/s speed=1.31x    
frame=6431
fps=32.83
stream_0_0_q=23.0
bitrate=4532.8kbits/s
total_size=145752112
out_time_us=257240000
out_time_ms=257240000
out_time=00:04:17.240000
dup_frames=0
drop_frames=0
speed=1.31x
progress=continue
frame= 6573 fps= 33 q=23.0 size=  145664KiB time=00:04:22.96 bitrate=4537.9kbits/s speed=1.31x    
frame=6573
fps=32.71
stream_0_0_q=23.0
bitrate=4537.9kbits/s
total_size=149159984
out_time_us=262960000
out_time_ms=262960000
out_time=00:04:22.960000
dup_frames=0
drop_frames=0
speed=1.31x
progress=continue
frame= 6720 fps= 33 q=23.0 size=  149248KiB time=00:04:28.84 bitrate=4547.8kbits/s speed=1.31x    
frame=6720
fps=32.63
stream_0_0_q=23.0
bitrate=4547.8kbits/s
total_size=152830000
out_time_us=268840000
out_time_ms=268840000
out_time=00:04:28.840000
dup_frames=0
drop_frames=0
speed=1.31x
progress=continue
frame= 6904 fps= 33 q=23.0 size=  152832KiB time=00:04:36.20 bitrate=4532.9kbits/s speed=1.31x    
frame=6904
fps=32.72
stream_0_0_q=23.0
bitrate=4532.9kbits/s
total_size=156500016
out_time_us=276200000
out_time_ms=276200000
out_time=00:04:36.200000
dup_frames=0
drop_frames=0
speed=1.31x
progress=continue
frame= 7093 fps= 33 q=23.0 size=  156160KiB time=00:04:43.76 bitrate=4508.3kbits/s speed=1.31x    
frame=7093
fps=32.84
stream_0_0_q=23.0
bitrate=4508.3kbits/s
total_size=159907888
out_time_us=283760000
out_time_ms=283760000
out_time=00:04:43.760000
dup_frames=0
drop_frames=0
speed=1.31x
progress=continue
frame= 7232 fps= 33 q=23.0 size=  159744KiB time=00:04:49.32 bitrate=4523.1kbits/s speed=1.31x    
frame=7232
fps=32.72
stream_0_0_q=23.0
bitrate=4523.1kbits/s
total_size=163577904
out_time_us=289320000
out_time_ms=289320000
out_time=00:04:49.320000
dup_frames=0
drop_frames=0
speed=1.31x
progress=continue
frame= 7426 fps= 33 q=23.0 size=  163328KiB time=00:04:57.08 bitrate=4503.8kbits/s speed=1.31x    
frame=7426
fps=32.85
stream_0_0_q=23.0
bitrate=4503.8kbits/s
total_size=167247920
out_time_us=297080000
out_time_ms=297080000
out_time=00:04:57.080000
dup_frames=0
drop_frames=0
speed=1.31x
progress=continue
frame= 7559 fps= 33 q=23.0 size=  166656KiB time=00:05:02.36 bitrate=4515.3kbits/s speed=1.31x    
frame=7559
fps=32.71
stream_0_0_q=23.0
bitrate=4515.3kbits/s
total_size=170655792
out_time_us=302360000
out_time_ms=302360000
out_time=00:05:02.360000
dup_frames=0
drop_frames=0
speed=1.31x
progress=continue
frame= 7710 fps= 33 q=23.0 size=  170240KiB time=00:05:08.44 bitrate=4521.5kbits/s speed=1.31x    
frame=7710
fps=32.66
stream_0_0_q=23.0
bitrate=4521.5kbits/s
total_size=174325808
out_time_us=308440000
out_time_ms=308440000
out_time=00:05:08.440000
dup_frames=0
drop_frames=0
speed=1.31x
progress=continue
frame= 7870 fps= 33 q=23.0 size=  173312KiB time=00:05:14.80 bitrate=4510.1kbits/s speed=1.31x    
frame=7870
fps=32.64
stream_0_0_q=23.0
bitrate=4510.1kbits/s
total_size=177471536
out_time_us=314800000
out_time_ms=314800000
out_time=00:05:14.800000
dup_frames=0
drop_frames=0
speed=1.31x
progress=continue
frame= 8051 fps= 33 q=23.0 size=  176896KiB time=00:05:22.08 bitrate=4499.3kbits/s speed=1.31x    
frame=8051
fps=32.70
stream_0_0_q=23.0
bitrate=4499.3kbits/s
total_size=181141552
out_time_us=322080000
out_time_ms=322080000
out_time=00:05:22.080000
dup_frames=0
drop_frames=0
speed=1.31x
progress=continue
frame= 8248 fps= 33 q=23.0 size=  180480KiB time=00:05:29.92 bitrate=4481.4kbits/s speed=1.31x    
frame=8248
fps=32.83
stream_0_0_q=23.0
bitrate=4481.4kbits/s
total_size=184811568
out_time_us=329920000
out_time_ms=329920000
out_time=00:05:29.920000
dup_frames=0
drop_frames=0
speed=1.31x
progress=continue
frame= 8439 fps= 33 q=23.0 size=  183808KiB time=00:05:37.60 bitrate=4460.2kbits/s speed=1.32x    
frame=8439
fps=32.93
stream_0_0_q=23.0
bitrate=4460.2kbits/s
total_size=188219440
out_time_us=337600000
out_time_ms=337600000
out_time=00:05:37.600000
dup_frames=0
drop_frames=0
speed=1.32x
progress=continue
frame= 8664 fps= 33 q=23.0 size=  187392KiB time=00:05:46.60 bitrate=4429.1kbits/s speed=1.33x    
frame=8664
fps=33.16
stream_0_0_q=23.0
bitrate=4429.1kbits/s
total_size=191889456
out_time_us=346600000
out_time_ms=346600000
out_time=00:05:46.600000
dup_frames=0
drop_frames=0
speed=1.33x
progress=continue
frame= 8857 fps= 33 q=23.0 size=  190976KiB time=00:05:54.32 bitrate=4415.4kbits/s speed=1.33x    
frame=8857
fps=33.26
stream_0_0_q=23.0
bitrate=4415.4kbits/s
total_size=195559472
out_time_us=354320000
out_time_ms=354320000
out_time=00:05:54.320000
dup_frames=0
drop_frames=0
speed=1.33x
progress=continue
frame= 9022 fps= 33 q=23.0 size=  194048KiB time=00:06:00.92 bitrate=4404.4kbits/s speed=1.33x    
frame=9022
fps=33.25
stream_0_0_q=23.0
bitrate=4404.4kbits/s
total_size=198705200
out_time_us=360920000
out_time_ms=360920000
out_time=00:06:00.920000
dup_frames=0
drop_frames=0
speed=1.33x
progress=continue
frame= 9174 fps= 33 q=23.0 size=  197120KiB time=00:06:07.00 bitrate=4400.0kbits/s speed=1.33x    
frame=9174
fps=33.20
stream_0_0_q=23.0
bitrate=4400.0kbits/s
total_size=201850928
out_time_us=367000000
out_time_ms=367000000
out_time=00:06:07.000000
dup_frames=0
drop_frames=0
speed=1.33x
progress=continue
frame= 9346 fps= 33 q=23.0 size=  200192KiB time=00:06:13.84 bitrate=4386.8kbits/s speed=1.33x    
frame=9346
fps=33.22
stream_0_0_q=23.0
bitrate=4386.8kbits/s
total_size=204996656
out_time_us=373840000
out_time_ms=373840000
out_time=00:06:13.840000
dup_frames=0
drop_frames=0
speed=1.33x
progress=continue
frame= 9470 fps= 33 q=23.0 size=  203520KiB time=00:06:18.84 bitrate=4400.9kbits/s speed=1.32x    
frame=9470
fps=33.07
stream_0_0_q=23.0
bitrate=4400.9kbits/s
total_size=208404528
out_time_us=378840000
out_time_ms=378840000
out_time=00:06:18.840000
dup_frames=0
drop_frames=0
speed=1.32x
progress=continue
frame= 9604 fps= 33 q=23.0 size=  206848KiB time=00:06:24.20 bitrate=4410.5kbits/s speed=1.32x    
frame=9604
fps=32.96
stream_0_0_q=23.0
bitrate=4410.5kbits/s
total_size=211812400
out_time_us=384200000
out_time_ms=384200000
out_time=00:06:24.200000
dup_frames=0
drop_frames=0
speed=1.32x
progress=continue
frame= 9748 fps= 33 q=23.0 size=  210176KiB time=00:06:29.96 bitrate=4415.2kbits/s speed=1.32x    
frame=9748
fps=32.88
stream_0_0_q=23.0
bitrate=4415.2kbits/s
total_size=215220272
out_time_us=389960000
out_time_ms=389960000
out_time=00:06:29.960000
dup_frames=0
drop_frames=0
speed=1.32x
progress=continue
frame= 9915 fps= 33 q=20.0 size=  213504KiB time=00:06:36.64 bitrate=4409.6kbits/s speed=1.32x    
frame=9915
fps=32.89
stream_0_0_q=20.0
bitrate=4409.6kbits/s
total_size=218628144
out_time_us=396640000
out_time_ms=396640000
out_time=00:06:36.640000
dup_frames=0
drop_frames=0
speed=1.32x
progress=continue
frame=10074 fps= 33 q=23.0 size=  216832KiB time=00:06:43.00 bitrate=4407.7kbits/s speed=1.31x    
frame=10074
fps=32.87
stream_0_0_q=23.0
bitrate=4407.7kbits/s
total_size=222036016
out_time_us=403000000
out_time_ms=403000000
out_time=00:06:43.000000
dup_frames=0
drop_frames=0
speed=1.31x
progress=continue
frame=10274 fps= 33 q=23.0 size=  219904KiB time=00:06:51.00 bitrate=4383.1kbits/s speed=1.32x    
frame=10274
fps=32.98
stream_0_0_q=23.0
bitrate=4383.1kbits/s
total_size=225181744
out_time_us=411000000
out_time_ms=411000000
out_time=00:06:51.000000
dup_frames=0
drop_frames=0
speed=1.32x
progress=continue
frame=10481 fps= 33 q=23.0 size=  223744KiB time=00:06:59.28 bitrate=4371.6kbits/s speed=1.32x    
frame=10481
fps=33.11
stream_0_0_q=23.0
bitrate=4371.6kbits/s
total_size=229113904
out_time_us=419280000
out_time_ms=419280000
out_time=00:06:59.280000
dup_frames=0
drop_frames=0
speed=1.32x
progress=continue
frame=10647 fps= 33 q=23.0 size=  227328KiB time=00:07:05.88 bitrate=4372.8kbits/s speed=1.32x    
frame=10647
fps=33.11
stream_0_0_q=23.0
bitrate=4372.8kbits/s
total_size=232783920
out_time_us=425880000
out_time_ms=425880000
out_time=00:07:05.880000
dup_frames=0
drop_frames=0
speed=1.32x
progress=continue
frame=10849 fps= 33 q=23.0 size=  230912KiB time=00:07:14.00 bitrate=4358.6kbits/s speed=1.33x    
frame=10849
fps=33.22
stream_0_0_q=23.0
bitrate=4358.6kbits/s
total_size=236453936
out_time_us=434000000
out_time_ms=434000000
out_time=00:07:14.000000
dup_frames=0
drop_frames=0
speed=1.33x
progress=continue
frame=11030 fps= 33 q=23.0 size=  234496KiB time=00:07:21.24 bitrate=4353.6kbits/s speed=1.33x    
frame=11030
fps=33.26
stream_0_0_q=23.0
bitrate=4353.6kbits/s
total_size=240123952
out_time_us=441240000
out_time_ms=441240000
out_time=00:07:21.240000
dup_frames=0
drop_frames=0
speed=1.33x
progress=continue
frame=11177 fps= 33 q=23.0 size=  237824KiB time=00:07:27.12 bitrate=4357.3kbits/s speed=1.33x    
frame=11177
fps=33.20
stream_0_0_q=23.0
bitrate=4357.3kbits/s
total_size=243531824
out_time_us=447120000
out_time_ms=447120000
out_time=00:07:27.120000
dup_frames=0
drop_frames=0
speed=1.33x
progress=continue
frame=11316 fps= 33 q=23.0 size=  241408KiB time=00:07:32.68 bitrate=4368.7kbits/s speed=1.32x    
frame=11316
fps=33.12
stream_0_0_q=23.0
bitrate=4368.7kbits/s
total_size=247201840
out_time_us=452680000
out_time_ms=452680000
out_time=00:07:32.680000
dup_frames=0
drop_frames=0
speed=1.32x
progress=continue
frame=11463 fps= 33 q=23.0 size=  244480KiB time=00:07:38.56 bitrate=4367.5kbits/s speed=1.32x    
frame=11463
fps=33.06
stream_0_0_q=23.0
bitrate=4367.5kbits/s
total_size=250347568
out_time_us=458560000
out_time_ms=458560000
out_time=00:07:38.560000
dup_frames=0
drop_frames=0
speed=1.32x
progress=continue
frame=11581 fps= 33 q=23.0 size=  248320KiB time=00:07:43.28 bitrate=4390.9kbits/s speed=1.32x    
frame=11581
fps=32.93
stream_0_0_q=23.0
bitrate=4390.9kbits/s
total_size=254279728
out_time_us=463280000
out_time_ms=463280000
out_time=00:07:43.280000
dup_frames=0
drop_frames=0
speed=1.32x
progress=continue
frame=11704 fps= 33 q=23.0 size=  252672KiB time=00:07:48.20 bitrate=4421.0kbits/s speed=1.31x    
frame=11704
fps=32.81
stream_0_0_q=23.0
bitrate=4421.0kbits/s
total_size=258736176
out_time_us=468200000
out_time_ms=468200000
out_time=00:07:48.200000
dup_frames=0
drop_frames=0
speed=1.31x
progress=continue
frame=11877 fps= 33 q=23.0 size=  257792KiB time=00:07:55.08 bitrate=4445.2kbits/s speed=1.31x    
frame=11877
fps=32.83
stream_0_0_q=23.0
bitrate=4445.2kbits/s
total_size=263979056
out_time_us=475080000
out_time_ms=475080000
out_time=00:07:55.080000
dup_frames=0
drop_frames=0
speed=1.31x
progress=continue
frame=12041 fps= 33 q=23.0 size=  261888KiB time=00:08:01.64 bitrate=4454.3kbits/s speed=1.31x    
frame=12041
fps=32.83
stream_0_0_q=23.0
bitrate=4454.3kbits/s
total_size=268173360
out_time_us=481640000
out_time_ms=481640000
out_time=00:08:01.640000
dup_frames=0
drop_frames=0
speed=1.31x
progress=continue
frame=12242 fps= 33 q=23.0 size=  266240KiB time=00:08:09.72 bitrate=4453.6kbits/s speed=1.32x    
frame=12242
fps=32.92
stream_0_0_q=23.0
bitrate=4453.6kbits/s
total_size=272629808
out_time_us=489720000
out_time_ms=489720000
out_time=00:08:09.720000
dup_frames=0
drop_frames=0
speed=1.32x
progress=continue
frame=12435 fps= 33 q=23.0 size=  270336KiB time=00:08:17.44 bitrate=4452.0kbits/s speed=1.32x    
frame=12435
fps=32.99
stream_0_0_q=23.0
bitrate=4452.0kbits/s
total_size=276824112
out_time_us=497440000
out_time_ms=497440000
out_time=00:08:17.440000
dup_frames=0
drop_frames=0
speed=1.32x
progress=continue
frame=12620 fps= 33 q=23.0 size=  274688KiB time=00:08:24.84 bitrate=4457.3kbits/s speed=1.32x    
frame=12620
fps=33.04
stream_0_0_q=23.0
bitrate=4457.3kbits/s
total_size=281280560
out_time_us=504840000
out_time_ms=504840000
out_time=00:08:24.840000
dup_frames=0
drop_frames=0
speed=1.32x
progress=continue
frame=12827 fps= 33 q=23.0 size=  279040KiB time=00:08:33.12 bitrate=4454.9kbits/s speed=1.33x    
frame=12827
fps=33.15
stream_0_0_q=23.0
bitrate=4454.9kbits/s
total_size=285737008
out_time_us=513120000
out_time_ms=513120000
out_time=00:08:33.120000
dup_frames=0
drop_frames=0
speed=1.33x
progress=continue
frame=13045 fps= 33 q=23.0 size=  283648KiB time=00:08:41.84 bitrate=4452.8kbits/s speed=1.33x    
frame=13045
fps=33.28
stream_0_0_q=23.0
bitrate=4452.8kbits/s
total_size=290455600
out_time_us=521840000
out_time_ms=521840000
out_time=00:08:41.840000
dup_frames=0
drop_frames=0
speed=1.33x
progress=continue
frame=13237 fps= 33 q=23.0 size=  288256KiB time=00:08:49.52 bitrate=4459.5kbits/s speed=1.33x    
frame=13237
fps=33.34
stream_0_0_q=23.0
bitrate=4459.5kbits/s
total_size=295174192
out_time_us=529520000
out_time_ms=529520000
out_time=00:08:49.520000
dup_frames=0
drop_frames=0
speed=1.33x
progress=continue
frame=13440 fps= 33 q=20.0 size=  292352KiB time=00:08:57.64 bitrate=4454.6kbits/s speed=1.34x    
frame=13440
fps=33.43
stream_0_0_q=20.0
bitrate=4454.6kbits/s
total_size=299368496
out_time_us=537640000
out_time_ms=537640000
out_time=00:08:57.640000
dup_frames=0
drop_frames=0
speed=1.34x
progress=continue
frame=13641 fps= 34 q=23.0 size=  296704KiB time=00:09:05.68 bitrate=4454.3kbits/s speed=1.34x    
frame=13641
fps=33.51
stream_0_0_q=23.0
bitrate=4454.3kbits/s
total_size=303824944
out_time_us=545680000
out_time_ms=545680000
out_time=00:09:05.680000
dup_frames=0
drop_frames=0
speed=1.34x
progress=continue
frame=13817 fps= 34 q=23.0 size=  301056KiB time=00:09:12.72 bitrate=4462.0kbits/s speed=1.34x    
frame=13817
fps=33.53
stream_0_0_q=23.0
bitrate=4462.0kbits/s
total_size=308281392
out_time_us=552720000
out_time_ms=552720000
out_time=00:09:12.720000
dup_frames=0
drop_frames=0
speed=1.34x
progress=continue
frame=14035 fps= 34 q=23.0 size=  305408KiB time=00:09:21.44 bitrate=4456.2kbits/s speed=1.35x    
frame=14035
fps=33.65
stream_0_0_q=23.0
bitrate=4456.2kbits/s
total_size=312737840
out_time_us=561440000
out_time_ms=561440000
out_time=00:09:21.440000
dup_frames=0
drop_frames=0
speed=1.35x
progress=continue
frame=14239 fps= 34 q=23.0 size=  309760KiB time=00:09:29.60 bitrate=4455.0kbits/s speed=1.35x    
frame=14239
fps=33.73
stream_0_0_q=23.0
bitrate=4455.0kbits/s
total_size=317194288
out_time_us=569600000
out_time_ms=569600000
out_time=00:09:29.600000
dup_frames=0
drop_frames=0
speed=1.35x
progress=continue
frame=14450 fps= 34 q=23.0 size=  313600KiB time=00:09:38.04 bitrate=4444.3kbits/s speed=1.35x    
frame=14450
fps=33.83
stream_0_0_q=23.0
bitrate=4444.3kbits/s
total_size=321126448
out_time_us=578040000
out_time_ms=578040000
out_time=00:09:38.040000
dup_frames=0
drop_frames=0
speed=1.35x
progress=continue
frame=14614 fps= 34 q=23.0 size=  317952KiB time=00:09:44.60 bitrate=4455.5kbits/s speed=1.35x    
frame=14614
fps=33.82
stream_0_0_q=23.0
bitrate=4455.5kbits/s
total_size=325582896
out_time_us=584600000
out_time_ms=584600000
out_time=00:09:44.600000
dup_frames=0
drop_frames=0
speed=1.35x
progress=continue
frame=14754 fps= 34 q=23.0 size=  322304KiB time=00:09:50.20 bitrate=4473.6kbits/s speed=1.35x    
frame=14754
fps=33.75
stream_0_0_q=23.0
bitrate=4473.6kbits/s
total_size=330039344
out_time_us=590200000
out_time_ms=590200000
out_time=00:09:50.200000
dup_frames=0
drop_frames=0
speed=1.35x
progress=continue
frame=14880 fps= 34 q=23.0 size=  325888KiB time=00:09:55.24 bitrate=4485.0kbits/s speed=1.35x    
frame=14880
fps=33.65
stream_0_0_q=23.0
bitrate=4485.0kbits/s
total_size=333709360
out_time_us=595240000
out_time_ms=595240000
out_time=00:09:55.240000
dup_frames=0
drop_frames=0
speed=1.35x
progress=continue
frame=15055 fps= 34 q=23.0 size=  329984KiB time=00:10:02.16 bitrate=4489.2kbits/s speed=1.35x    
frame=15055
fps=33.66
stream_0_0_q=23.0
bitrate=4489.2kbits/s
total_size=337903664
out_time_us=602160000
out_time_ms=602160000
out_time=00:10:02.160000
dup_frames=0
drop_frames=0
speed=1.35x
progress=continue
frame=15274 fps= 34 q=23.0 size=  334592KiB time=00:10:11.00 bitrate=4486.1kbits/s speed=1.35x    
frame=15274
fps=33.77
stream_0_0_q=23.0
bitrate=4486.1kbits/s
total_size=342622256
out_time_us=611000000
out_time_ms=611000000
out_time=00:10:11.000000
dup_frames=0
drop_frames=0
speed=1.35x
progress=continue
frame=15411 fps= 34 q=23.0 size=  338432KiB time=00:10:16.44 bitrate=4497.5kbits/s speed=1.35x    
frame=15411
fps=33.70
stream_0_0_q=23.0
bitrate=4497.5kbits/s
total_size=346554416
out_time_us=616440000
out_time_ms=616440000
out_time=00:10:16.440000
dup_frames=0
drop_frames=0
speed=1.35x
progress=continue
frame=15559 fps= 34 q=23.0 size=  342272KiB time=00:10:22.40 bitrate=4505.0kbits/s speed=1.35x    
frame=15559
fps=33.65
stream_0_0_q=23.0
bitrate=4505.0kbits/s
total_size=350486576
out_time_us=622400000
out_time_ms=622400000
out_time=00:10:22.400000
dup_frames=0
drop_frames=0
speed=1.35x
progress=continue
frame=15724 fps= 34 q=23.0 size=  346112KiB time=00:10:29.00 bitrate=4507.7kbits/s speed=1.35x    
frame=15724
fps=33.64
stream_0_0_q=23.0
bitrate=4507.7kbits/s
total_size=354418736
out_time_us=629000000
out_time_ms=629000000
out_time=00:10:29.000000
dup_frames=0
drop_frames=0
speed=1.35x
progress=continue
frame=15872 fps= 34 q=23.0 size=  350464KiB time=00:10:34.92 bitrate=4521.8kbits/s speed=1.34x    
frame=15872
fps=33.60
stream_0_0_q=23.0
bitrate=4521.8kbits/s
total_size=358875184
out_time_us=634920000
out_time_ms=634920000
out_time=00:10:34.920000
dup_frames=0
drop_frames=0
speed=1.34x
progress=continue
frame=16029 fps= 34 q=23.0 size=  354560KiB time=00:10:41.20 bitrate=4529.9kbits/s speed=1.34x    
frame=16029
fps=33.57
stream_0_0_q=23.0
bitrate=4529.9kbits/s
total_size=363069488
out_time_us=641200000
out_time_ms=641200000
out_time=00:10:41.200000
dup_frames=0
drop_frames=0
speed=1.34x
progress=continue
frame=16238 fps= 34 q=23.0 size=  358912KiB time=00:10:49.48 bitrate=4527.0kbits/s speed=1.35x    
frame=16238
fps=33.66
stream_0_0_q=23.0
bitrate=4527.0kbits/s
total_size=367525936
out_time_us=649480000
out_time_ms=649480000
out_time=00:10:49.480000
dup_frames=0
drop_frames=0
speed=1.35x
progress=continue
frame=16355 fps= 34 q=23.0 size=  363008KiB time=00:10:54.24 bitrate=4545.4kbits/s speed=1.34x    
frame=16355
fps=33.55
stream_0_0_q=23.0
bitrate=4545.4kbits/s
total_size=371720240
out_time_us=654240000
out_time_ms=654240000
out_time=00:10:54.240000
dup_frames=0
drop_frames=0
speed=1.34x
progress=continue
frame=16470 fps= 33 q=23.0 size=  367616KiB time=00:10:58.84 bitrate=4570.9kbits/s speed=1.34x    
frame=16470
fps=33.44
stream_0_0_q=23.0
bitrate=4570.9kbits/s
total_size=376438832
out_time_us=658840000
out_time_ms=658840000
out_time=00:10:58.840000
dup_frames=0
drop_frames=0
speed=1.34x
progress=continue
frame=16609 fps= 33 q=23.0 size=  372480KiB time=00:11:04.40 bitrate=4592.6kbits/s speed=1.34x    
frame=16609
fps=33.38
stream_0_0_q=23.0
bitrate=4592.6kbits/s
total_size=381419568
out_time_us=664400000
out_time_ms=664400000
out_time=00:11:04.400000
dup_frames=0
drop_frames=0
speed=1.34x
progress=continue
frame=16758 fps= 33 q=23.0 size=  376832KiB time=00:11:10.36 bitrate=4605.0kbits/s speed=1.33x    
frame=16758
fps=33.34
stream_0_0_q=23.0
bitrate=4605.0kbits/s
total_size=385876016
out_time_us=670360000
out_time_ms=670360000
out_time=00:11:10.360000
dup_frames=0
drop_frames=0
speed=1.33x
progress=continue
frame=16906 fps= 33 q=23.0 size=  381184KiB time=00:11:16.28 bitrate=4617.4kbits/s speed=1.33x    
frame=16906
fps=33.30
stream_0_0_q=23.0
bitrate=4617.4kbits/s
total_size=390332464
out_time_us=676280000
out_time_ms=676280000
out_time=00:11:16.280000
dup_frames=0
drop_frames=0
speed=1.33x
progress=continue
frame=17060 fps= 33 q=23.0 size=  385536KiB time=00:11:22.44 bitrate=4628.0kbits/s speed=1.33x    
frame=17060
fps=33.28
stream_0_0_q=23.0
bitrate=4628.0kbits/s
total_size=394788912
out_time_us=682440000
out_time_ms=682440000
out_time=00:11:22.440000
dup_frames=0
drop_frames=0
speed=1.33x
progress=continue
frame=17193 fps= 33 q=23.0 size=  389376KiB time=00:11:27.76 bitrate=4637.9kbits/s speed=1.33x    
frame=17193
fps=33.21
stream_0_0_q=23.0
bitrate=4637.9kbits/s
total_size=398721072
out_time_us=687760000
out_time_ms=687760000
out_time=00:11:27.760000
dup_frames=0
drop_frames=0
speed=1.33x
progress=continue
frame=17358 fps= 33 q=23.0 size=  393472KiB time=00:11:34.36 bitrate=4642.1kbits/s speed=1.33x    
frame=17358
fps=33.21
stream_0_0_q=23.0
bitrate=4642.1kbits/s
total_size=402915376
out_time_us=694360000
out_time_ms=694360000
out_time=00:11:34.360000
dup_frames=0
drop_frames=0
speed=1.33x
progress=continue
frame=17512 fps= 33 q=23.0 size=  397312KiB time=00:11:40.48 bitrate=4646.5kbits/s speed=1.33x    
frame=17512
fps=33.18
stream_0_0_q=23.0
bitrate=4646.5kbits/s
total_size=406847536
out_time_us=700480000
out_time_ms=700480000
out_time=00:11:40.480000
dup_frames=0
drop_frames=0
speed=1.33x
progress=continue
frame=17674 fps= 33 q=23.0 size=  402176KiB time=00:11:47.00 bitrate=4660.0kbits/s speed=1.33x    
frame=17674
fps=33.18
stream_0_0_q=23.0
bitrate=4660.0kbits/s
total_size=411828272
out_time_us=707000000
out_time_ms=707000000
out_time=00:11:47.000000
dup_frames=0
drop_frames=0
speed=1.33x
progress=continue
frame=17851 fps= 33 q=23.0 size=  405760KiB time=00:11:54.08 bitrate=4654.9kbits/s speed=1.33x    
frame=17851
fps=33.19
stream_0_0_q=23.0
bitrate=4654.9kbits/s
total_size=415498288
out_time_us=714080000
out_time_ms=714080000
out_time=00:11:54.080000
dup_frames=0
drop_frames=0
speed=1.33x
progress=continue
frame=17991 fps= 33 q=23.0 size=  409856KiB time=00:11:59.68 bitrate=4665.3kbits/s speed=1.33x    
frame=17991
fps=33.14
stream_0_0_q=23.0
bitrate=4665.3kbits/s
total_size=419692592
out_time_us=719680000
out_time_ms=719680000
out_time=00:11:59.680000
dup_frames=0
drop_frames=0
speed=1.33x
progress=continue
frame=18157 fps= 33 q=23.0 size=  413696KiB time=00:12:06.32 bitrate=4666.0kbits/s speed=1.33x    
frame=18157
fps=33.14
stream_0_0_q=23.0
bitrate=4666.0kbits/s
total_size=423624752
out_time_us=726320000
out_time_ms=726320000
out_time=00:12:06.320000
dup_frames=0
drop_frames=0
speed=1.33x
progress=continue
frame=18347 fps= 33 q=23.0 size=  417536KiB time=00:12:13.92 bitrate=4660.5kbits/s speed=1.33x    
frame=18347
fps=33.19
stream_0_0_q=23.0
bitrate=4660.5kbits/s
total_size=427556912
out_time_us=733920000
out_time_ms=733920000
out_time=00:12:13.920000
dup_frames=0
drop_frames=0
speed=1.33x
progress=continue
frame=18505 fps= 33 q=23.0 size=  421376KiB time=00:12:20.24 bitrate=4663.2kbits/s speed=1.33x    
frame=18505
fps=33.17
stream_0_0_q=23.0
bitrate=4663.2kbits/s
total_size=431489072
out_time_us=740240000
out_time_ms=740240000
out_time=00:12:20.240000
dup_frames=0
drop_frames=0
speed=1.33x
progress=continue
frame=18678 fps= 33 q=23.0 size=  425216KiB time=00:12:27.16 bitrate=4662.1kbits/s speed=1.33x    
frame=18678
fps=33.18
stream_0_0_q=23.0
bitrate=4662.1kbits/s
total_size=435421232
out_time_us=747160000
out_time_ms=747160000
out_time=00:12:27.160000
dup_frames=0
drop_frames=0
speed=1.33x
progress=continue
frame=18858 fps= 33 q=23.0 size=  429056KiB time=00:12:34.36 bitrate=4659.3kbits/s speed=1.33x    
frame=18858
fps=33.21
stream_0_0_q=23.0
bitrate=4659.3kbits/s
total_size=439353392
out_time_us=754360000
out_time_ms=754360000
out_time=00:12:34.360000
dup_frames=0
drop_frames=0
speed=1.33x
progress=continue
frame=19005 fps= 33 q=23.0 size=  433408KiB time=00:12:40.20 bitrate=4670.5kbits/s speed=1.33x    
frame=19005
fps=33.17
stream_0_0_q=23.0
bitrate=4670.5kbits/s
total_size=443809840
out_time_us=760200000
out_time_ms=760200000
out_time=00:12:40.200000
dup_frames=0
drop_frames=0
speed=1.33x
progress=continue
frame=19153 fps= 33 q=23.0 size=  438016KiB time=00:12:46.16 bitrate=4683.4kbits/s speed=1.33x    
frame=19153
fps=33.14
stream_0_0_q=23.0
bitrate=4683.4kbits/s
total_size=448528432
out_time_us=766160000
out_time_ms=766160000
out_time=00:12:46.160000
dup_frames=0
drop_frames=0
speed=1.33x
progress=continue
frame=19340 fps= 33 q=20.0 size=  442624KiB time=00:12:53.64 bitrate=4686.9kbits/s speed=1.33x    
frame=19340
fps=33.17
stream_0_0_q=20.0
bitrate=4686.9kbits/s
total_size=453247024
out_time_us=773640000
out_time_ms=773640000
out_time=00:12:53.640000
dup_frames=0
drop_frames=0
speed=1.33x
progress=continue
frame=19499 fps= 33 q=23.0 size=  446720KiB time=00:13:00.00 bitrate=4691.7kbits/s speed=1.33x    
frame=19499
fps=33.16
stream_0_0_q=23.0
bitrate=4691.7kbits/s
total_size=457441328
out_time_us=780000000
out_time_ms=780000000
out_time=00:13:00.000000
dup_frames=0
drop_frames=0
speed=1.33x
progress=continue
frame=19632 fps= 33 q=23.0 size=  451328KiB time=00:13:05.28 bitrate=4708.2kbits/s speed=1.32x    
frame=19632
fps=33.11
stream_0_0_q=23.0
bitrate=4708.2kbits/s
total_size=462159920
out_time_us=785280000
out_time_ms=785280000
out_time=00:13:05.280000
dup_frames=0
drop_frames=0
speed=1.32x
progress=continue
frame=19761 fps= 33 q=23.0 size=  456960KiB time=00:13:10.48 bitrate=4735.6kbits/s speed=1.32x    
frame=19761
fps=33.04
stream_0_0_q=23.0
bitrate=4735.6kbits/s
total_size=467927088
out_time_us=790480000
out_time_ms=790480000
out_time=00:13:10.480000
dup_frames=0
drop_frames=0
speed=1.32x
progress=continue
frame=19897 fps= 33 q=23.0 size=  461056KiB time=00:13:15.92 bitrate=4745.4kbits/s speed=1.32x    
frame=19897
fps=32.99
stream_0_0_q=23.0
bitrate=4745.4kbits/s
total_size=472121392
out_time_us=795920000
out_time_ms=795920000
out_time=00:13:15.920000
dup_frames=0
drop_frames=0
speed=1.32x
progress=continue
frame=20022 fps= 33 q=23.0 size=  465408KiB time=00:13:20.92 bitrate=4760.3kbits/s speed=1.32x    
frame=20022
fps=32.93
stream_0_0_q=23.0
bitrate=4760.3kbits/s
total_size=476577840
out_time_us=800920000
out_time_ms=800920000
out_time=00:13:20.920000
dup_frames=0
drop_frames=0
speed=1.32x
progress=continue
frame=20135 fps= 33 q=23.0 size=  469248KiB time=00:13:25.44 bitrate=4772.6kbits/s speed=1.31x    
frame=20135
fps=32.84
stream_0_0_q=23.0
bitrate=4772.6kbits/s
total_size=480510000
out_time_us=805440000
out_time_ms=805440000
out_time=00:13:25.440000
dup_frames=0
drop_frames=0
speed=1.31x
progress=continue
frame=20275 fps= 33 q=23.0 size=  474112KiB time=00:13:31.04 bitrate=4788.8kbits/s speed=1.31x    
frame=20275
fps=32.80
stream_0_0_q=23.0
bitrate=4788.8kbits/s
total_size=485490736
out_time_us=811040000
out_time_ms=811040000
out_time=00:13:31.040000
dup_frames=0
drop_frames=0
speed=1.31x
progress=continue
frame=20437 fps= 33 q=23.0 size=  479232KiB time=00:13:37.52 bitrate=4802.2kbits/s speed=1.31x    
frame=20437
fps=32.80
stream_0_0_q=23.0
bitrate=4802.2kbits/s
total_size=490733616
out_time_us=817520000
out_time_ms=817520000
out_time=00:13:37.520000
dup_frames=0
drop_frames=0
speed=1.31x
progress=continue
frame=20622 fps= 33 q=23.0 size=  484608KiB time=00:13:44.92 bitrate=4812.5kbits/s speed=1.31x    
frame=20622
fps=32.83
stream_0_0_q=23.0
bitrate=4812.5kbits/s
total_size=496238640
out_time_us=824920000
out_time_ms=824920000
out_time=00:13:44.920000
dup_frames=0
drop_frames=0
speed=1.31x
progress=continue
frame=20768 fps= 33 q=23.0 size=  488704KiB time=00:13:50.76 bitrate=4819.0kbits/s speed=1.31x    
frame=20768
fps=32.80
stream_0_0_q=23.0
bitrate=4819.0kbits/s
total_size=500432944
out_time_us=830760000
out_time_ms=830760000
out_time=00:13:50.760000
dup_frames=0
drop_frames=0
speed=1.31x
progress=continue
frame=20880 fps= 33 q=23.0 size=  492032KiB time=00:13:55.24 bitrate=4825.8kbits/s speed=1.31x    
frame=20880
fps=32.72
stream_0_0_q=23.0
bitrate=4825.8kbits/s
total_size=503840816
out_time_us=835240000
out_time_ms=835240000
out_time=00:13:55.240000
dup_frames=0
drop_frames=0
speed=1.31x
progress=continue
frame=21019 fps= 33 q=23.0 size=  495872KiB time=00:14:00.76 bitrate=4831.6kbits/s speed=1.31x    
frame=21019
fps=32.67
stream_0_0_q=23.0
bitrate=4831.6kbits/s
total_size=507772976
out_time_us=840760000
out_time_ms=840760000
out_time=00:14:00.760000
dup_frames=0
drop_frames=0
speed=1.31x
progress=continue
frame=21148 fps= 33 q=23.0 size=  498944KiB time=00:14:05.96 bitrate=4831.6kbits/s speed= 1.3x    
frame=21148
fps=32.62
stream_0_0_q=23.0
bitrate=4831.6kbits/s
total_size=510918704
out_time_us=845960000
out_time_ms=845960000
out_time=00:14:05.960000
dup_frames=0
drop_frames=0
speed= 1.3x
progress=continue
frame=21286 fps= 33 q=23.0 size=  502784KiB time=00:14:11.48 bitrate=4837.2kbits/s speed= 1.3x    
frame=21286
fps=32.58
stream_0_0_q=23.0
bitrate=4837.2kbits/s
total_size=514850864
out_time_us=851480000
out_time_ms=851480000
out_time=00:14:11.480000
dup_frames=0
drop_frames=0
speed= 1.3x
progress=continue
frame=21463 fps= 33 q=23.0 size=  505600KiB time=00:14:18.56 bitrate=4824.2kbits/s speed= 1.3x    
frame=21463
fps=32.60
stream_0_0_q=23.0
bitrate=4824.2kbits/s
total_size=517734448
out_time_us=858560000
out_time_ms=858560000
out_time=00:14:18.560000
dup_frames=0
drop_frames=0
speed= 1.3x
progress=continue
frame=21616 fps= 33 q=23.0 size=  509696KiB time=00:14:24.64 bitrate=4829.1kbits/s speed= 1.3x    
frame=21616
fps=32.58
stream_0_0_q=23.0
bitrate=4829.1kbits/s
total_size=521928752
out_time_us=864640000
out_time_ms=864640000
out_time=00:14:24.640000
dup_frames=0
drop_frames=0
speed= 1.3x
progress=continue
frame=21757 fps= 33 q=23.0 size=  512512KiB time=00:14:30.32 bitrate=4824.1kbits/s speed= 1.3x    
frame=21757
fps=32.55
stream_0_0_q=23.0
bitrate=4824.1kbits/s
total_size=524812336
out_time_us=870320000
out_time_ms=870320000
out_time=00:14:30.320000
dup_frames=0
drop_frames=0
speed= 1.3x
progress=continue
frame=21866 fps= 32 q=23.0 size=  515840KiB time=00:14:34.68 bitrate=4831.2kbits/s speed= 1.3x    
frame=21866
fps=32.47
stream_0_0_q=23.0
bitrate=4831.2kbits/s
total_size=528220208
out_time_us=874680000
out_time_ms=874680000
out_time=00:14:34.680000
dup_frames=0
drop_frames=0
speed= 1.3x
progress=continue
frame=21981 fps= 32 q=23.0 size=  518912KiB time=00:14:39.28 bitrate=4834.6kbits/s speed= 1.3x    
frame=21981
fps=32.40
stream_0_0_q=23.0
bitrate=4834.6kbits/s
total_size=531365936
out_time_us=879280000
out_time_ms=879280000
out_time=00:14:39.280000
dup_frames=0
drop_frames=0
speed= 1.3x
progress=continue
frame=22112 fps= 32 q=23.0 size=  523264KiB time=00:14:44.52 bitrate=4846.2kbits/s speed=1.29x    
frame=22112
fps=32.35
stream_0_0_q=23.0
bitrate=4846.2kbits/s
total_size=535822384
out_time_us=884520000
out_time_ms=884520000
out_time=00:14:44.520000
dup_frames=0
drop_frames=0
speed=1.29x
progress=continue
frame=22318 fps= 32 q=23.0 size=  528640KiB time=00:14:52.72 bitrate=4851.0kbits/s speed= 1.3x    
frame=22318
fps=32.41
stream_0_0_q=23.0
bitrate=4851.0kbits/s
total_size=541327408
out_time_us=892720000
out_time_ms=892720000
out_time=00:14:52.720000
dup_frames=0
drop_frames=0
speed= 1.3x
progress=continue
frame=22455 fps= 32 q=23.0 size=  533248KiB time=00:14:58.24 bitrate=4863.3kbits/s speed= 1.3x    
frame=22455
fps=32.38
stream_0_0_q=23.0
bitrate=4863.3kbits/s
total_size=546046000
out_time_us=898240000
out_time_ms=898240000
out_time=00:14:58.240000
dup_frames=0
drop_frames=0
speed= 1.3x
progress=continue
frame=22592 fps= 32 q=23.0 size=  537344KiB time=00:15:03.72 bitrate=4870.9kbits/s speed=1.29x    
frame=22592
fps=32.34
stream_0_0_q=23.0
bitrate=4870.9kbits/s
total_size=550240304
out_time_us=903720000
out_time_ms=903720000
out_time=00:15:03.720000
dup_frames=0
drop_frames=0
speed=1.29x
progress=continue
frame=22714 fps= 32 q=23.0 size=  541184KiB time=00:15:08.60 bitrate=4879.4kbits/s speed=1.29x    
frame=22714
fps=32.28
stream_0_0_q=23.0
bitrate=4879.4kbits/s
total_size=554172464
out_time_us=908600000
out_time_ms=908600000
out_time=00:15:08.600000
dup_frames=0
drop_frames=0
speed=1.29x
progress=continue
frame=22893 fps= 32 q=23.0 size=  546560KiB time=00:15:15.76 bitrate=4889.3kbits/s speed=1.29x    
frame=22893
fps=32.30
stream_0_0_q=23.0
bitrate=4889.3kbits/s
total_size=559677488
out_time_us=915760000
out_time_ms=915760000
out_time=00:15:15.760000
dup_frames=0
drop_frames=0
speed=1.29x
progress=continue
frame=23030 fps= 32 q=23.0 size=  550400KiB time=00:15:21.24 bitrate=4894.4kbits/s speed=1.29x    
frame=23030
fps=32.27
stream_0_0_q=23.0
bitrate=4894.4kbits/s
total_size=563609648
out_time_us=921240000
out_time_ms=921240000
out_time=00:15:21.240000
dup_frames=0
drop_frames=0
speed=1.29x
progress=continue
frame=23190 fps= 32 q=20.0 size=  554496KiB time=00:15:27.64 bitrate=4896.8kbits/s speed=1.29x    
frame=23190
fps=32.26
stream_0_0_q=20.0
bitrate=4896.8kbits/s
total_size=567803952
out_time_us=927640000
out_time_ms=927640000
out_time=00:15:27.640000
dup_frames=0
drop_frames=0
speed=1.29x
progress=continue
frame=23290 fps= 32 q=20.0 size=  557568KiB time=00:15:31.64 bitrate=4902.7kbits/s speed=1.29x    
frame=23290
fps=32.18
stream_0_0_q=20.0
bitrate=4902.7kbits/s
total_size=570949680
out_time_us=931640000
out_time_ms=931640000
out_time=00:15:31.640000
dup_frames=0
drop_frames=0
speed=1.29x
progress=continue
frame=23434 fps= 32 q=23.0 size=  561664KiB time=00:15:37.40 bitrate=4908.4kbits/s speed=1.29x    
frame=23434
fps=32.16
stream_0_0_q=23.0
bitrate=4908.4kbits/s
total_size=575143984
out_time_us=937400000
out_time_ms=937400000
out_time=00:15:37.400000
dup_frames=0
drop_frames=0
speed=1.29x
progress=continue
frame=23631 fps= 32 q=23.0 size=  565760KiB time=00:15:45.28 bitrate=4903.0kbits/s speed=1.29x    
frame=23631
fps=32.20
stream_0_0_q=23.0
bitrate=4903.0kbits/s
total_size=579338288
out_time_us=945280000
out_time_ms=945280000
out_time=00:15:45.280000
dup_frames=0
drop_frames=0
speed=1.29x
progress=continue
frame=23806 fps= 32 q=23.0 size=  569600KiB time=00:15:52.28 bitrate=4900.0kbits/s speed=1.29x    
frame=23806
fps=32.22
stream_0_0_q=23.0
bitrate=4900.0kbits/s
total_size=583270448
out_time_us=952280000
out_time_ms=952280000
out_time=00:15:52.280000
dup_frames=0
drop_frames=0
speed=1.29x
progress=continue
frame=23989 fps= 32 q=23.0 size=  573440KiB time=00:15:59.60 bitrate=4895.4kbits/s speed=1.29x    
frame=23989
fps=32.25
stream_0_0_q=23.0
bitrate=4895.4kbits/s
total_size=587202608
out_time_us=959600000
out_time_ms=959600000
out_time=00:15:59.600000
dup_frames=0
drop_frames=0
speed=1.29x
progress=continue
frame=24163 fps= 32 q=23.0 size=  577536KiB time=00:16:06.56 bitrate=4894.9kbits/s speed=1.29x    
frame=24163
fps=32.27
stream_0_0_q=23.0
bitrate=4894.9kbits/s
total_size=591396912
out_time_us=966560000
out_time_ms=966560000
out_time=00:16:06.560000
dup_frames=0
drop_frames=0
speed=1.29x
progress=continue
frame=24396 fps= 32 q=23.0 size=  581376KiB time=00:16:15.88 bitrate=4880.3kbits/s speed=1.29x    
frame=24396
fps=32.36
stream_0_0_q=23.0
bitrate=4880.3kbits/s
total_size=595329072
out_time_us=975880000
out_time_ms=975880000
out_time=00:16:15.880000
dup_frames=0
drop_frames=0
speed=1.29x
progress=continue
frame=24594 fps= 32 q=23.0 size=  585216KiB time=00:16:23.80 bitrate=4873.0kbits/s speed= 1.3x    
frame=24594
fps=32.41
stream_0_0_q=23.0
bitrate=4873.0kbits/s
total_size=599261232
out_time_us=983800000
out_time_ms=983800000
out_time=00:16:23.800000
dup_frames=0
drop_frames=0
speed= 1.3x
progress=continue
frame=24783 fps= 32 q=23.0 size=  588800KiB time=00:16:31.36 bitrate=4865.5kbits/s speed= 1.3x    
frame=24783
fps=32.44
stream_0_0_q=23.0
bitrate=4865.5kbits/s
total_size=602931248
out_time_us=991360000
out_time_ms=991360000
out_time=00:16:31.360000
dup_frames=0
drop_frames=0
speed= 1.3x
progress=continue
frame=24918 fps= 32 q=23.0 size=  591872KiB time=00:16:36.76 bitrate=4864.4kbits/s speed= 1.3x    
frame=24918
fps=32.40
stream_0_0_q=23.0
bitrate=4864.4kbits/s
total_size=606076976
out_time_us=996760000
out_time_ms=996760000
out_time=00:16:36.760000
dup_frames=0
drop_frames=0
speed= 1.3x
progress=continue
frame=25058 fps= 32 q=23.0 size=  595968KiB time=00:16:42.36 bitrate=4870.7kbits/s speed= 1.3x    
frame=25058
fps=32.37
stream_0_0_q=23.0
bitrate=4870.7kbits/s
total_size=610271280
out_time_us=1002360000
out_time_ms=1002360000
out_time=00:16:42.360000
dup_frames=0
drop_frames=0
speed= 1.3x
progress=continue
frame=25202 fps= 32 q=23.0 size=  600064KiB time=00:16:48.12 bitrate=4876.1kbits/s speed=1.29x    
frame=25202
fps=32.35
stream_0_0_q=23.0
bitrate=4876.1kbits/s
total_size=614465584
out_time_us=1008120000
out_time_ms=1008120000
out_time=00:16:48.120000
dup_frames=0
drop_frames=0
speed=1.29x
progress=continue
frame=25321 fps= 32 q=23.0 size=  603904KiB time=00:16:52.88 bitrate=4884.3kbits/s speed=1.29x    
frame=25321
fps=32.30
stream_0_0_q=23.0
bitrate=4884.3kbits/s
total_size=618397744
out_time_us=1012880000
out_time_ms=1012880000
out_time=00:16:52.880000
dup_frames=0
drop_frames=0
speed=1.29x
progress=continue
frame=25485 fps= 32 q=23.0 size=  607232KiB time=00:16:59.44 bitrate=4879.6kbits/s speed=1.29x    
frame=25485
fps=32.30
stream_0_0_q=23.0
bitrate=4879.6kbits/s
total_size=621805616
out_time_us=1019440000
out_time_ms=1019440000
out_time=00:16:59.440000
dup_frames=0
drop_frames=0
speed=1.29x
progress=continue
frame=25605 fps= 32 q=23.0 size=  610816KiB time=00:17:04.24 bitrate=4885.4kbits/s speed=1.29x    
frame=25605
fps=32.24
stream_0_0_q=23.0
bitrate=4885.4kbits/s
total_size=625475632
out_time_us=1024240000
out_time_ms=1024240000
out_time=00:17:04.240000
dup_frames=0
drop_frames=0
speed=1.29x
progress=continue
frame=25807 fps= 32 q=23.0 size=  613888KiB time=00:17:12.32 bitrate=4871.5kbits/s speed=1.29x    
frame=25807
fps=32.29
stream_0_0_q=23.0
bitrate=4871.5kbits/s
total_size=628621360
out_time_us=1032320000
out_time_ms=1032320000
out_time=00:17:12.320000
dup_frames=0
drop_frames=0
speed=1.29x
progress=continue
frame=25948 fps= 32 q=23.0 size=  617216KiB time=00:17:17.96 bitrate=4871.3kbits/s speed=1.29x    
frame=25948
fps=32.27
stream_0_0_q=23.0
bitrate=4871.3kbits/s
total_size=632029232
out_time_us=1037960000
out_time_ms=1037960000
out_time=00:17:17.960000
dup_frames=0
drop_frames=0
speed=1.29x
progress=continue
frame=26038 fps= 32 q=23.0 size=  625664KiB time=00:17:21.52 bitrate=4921.1kbits/s speed=1.29x    
frame=26038
fps=32.18
stream_0_0_q=23.0
bitrate=4921.1kbits/s
total_size=640679984
out_time_us=1041520000
out_time_ms=1041520000
out_time=00:17:21.520000
dup_frames=0
drop_frames=0
speed=1.29x
progress=continue
frame=26128 fps= 32 q=23.0 size=  630016KiB time=00:17:25.00 bitrate=4938.8kbits/s speed=1.28x    
frame=26128
fps=32.09
stream_0_0_q=23.0
bitrate=4938.8kbits/s
total_size=645136432
out_time_us=1045000000
out_time_ms=1045000000
out_time=00:17:25.000000
dup_frames=0
drop_frames=0
speed=1.28x
progress=continue
frame=26232 fps= 32 q=23.0 size=  633856KiB time=00:17:29.32 bitrate=4948.5kbits/s speed=1.28x    
frame=26232
fps=32.02
stream_0_0_q=23.0
bitrate=4948.5kbits/s
total_size=649068592
out_time_us=1049320000
out_time_ms=1049320000
out_time=00:17:29.320000
dup_frames=0
drop_frames=0
speed=1.28x
progress=continue
frame=26345 fps= 32 q=23.0 size=  637440KiB time=00:17:33.84 bitrate=4955.1kbits/s speed=1.28x    
frame=26345
fps=31.96
stream_0_0_q=23.0
bitrate=4955.1kbits/s
total_size=652738608
out_time_us=1053840000
out_time_ms=1053840000
out_time=00:17:33.840000
dup_frames=0
drop_frames=0
speed=1.28x
progress=continue
frame=26459 fps= 32 q=23.0 size=  641280KiB time=00:17:38.36 bitrate=4963.7kbits/s speed=1.28x    
frame=26459
fps=31.90
stream_0_0_q=23.0
bitrate=4963.7kbits/s
total_size=656670768
out_time_us=1058360000
out_time_ms=1058360000
out_time=00:17:38.360000
dup_frames=0
drop_frames=0
speed=1.28x
progress=continue
frame=26569 fps= 32 q=23.0 size=  645120KiB time=00:17:42.80 bitrate=4972.5kbits/s speed=1.27x    
frame=26569
fps=31.84
stream_0_0_q=23.0
bitrate=4972.5kbits/s
total_size=660602928
out_time_us=1062800000
out_time_ms=1062800000
out_time=00:17:42.800000
dup_frames=0
drop_frames=0
speed=1.27x
progress=continue
frame=26687 fps= 32 q=23.0 size=  649472KiB time=00:17:47.52 bitrate=4984.0kbits/s speed=1.27x    
frame=26687
fps=31.79
stream_0_0_q=23.0
bitrate=4984.0kbits/s
total_size=665059376
out_time_us=1067520000
out_time_ms=1067520000
out_time=00:17:47.520000
dup_frames=0
drop_frames=0
speed=1.27x
progress=continue
frame=26816 fps= 32 q=23.0 size=  653056KiB time=00:17:52.68 bitrate=4987.4kbits/s speed=1.27x    
frame=26816
fps=31.76
stream_0_0_q=23.0
bitrate=4987.4kbits/s
total_size=668729392
out_time_us=1072680000
out_time_ms=1072680000
out_time=00:17:52.680000
dup_frames=0
drop_frames=0
speed=1.27x
progress=continue
frame=26957 fps= 32 q=23.0 size=  656384KiB time=00:17:58.32 bitrate=4986.6kbits/s speed=1.27x    
frame=26957
fps=31.74
stream_0_0_q=23.0
bitrate=4986.6kbits/s
total_size=672137264
out_time_us=1078320000
out_time_ms=1078320000
out_time=00:17:58.320000
dup_frames=0
drop_frames=0
speed=1.27x
progress=continue
frame=27097 fps= 32 q=23.0 size=  659456KiB time=00:18:03.92 bitrate=4984.0kbits/s speed=1.27x    
frame=27097
fps=31.71
stream_0_0_q=23.0
bitrate=4984.0kbits/s
total_size=675282992
out_time_us=1083920000
out_time_ms=1083920000
out_time=00:18:03.920000
dup_frames=0
drop_frames=0
speed=1.27x
progress=continue
frame=27241 fps= 32 q=23.0 size=  662528KiB time=00:18:09.68 bitrate=4980.8kbits/s speed=1.27x    
frame=27241
fps=31.70
stream_0_0_q=23.0
bitrate=4980.8kbits/s
total_size=678428720
out_time_us=1089680000
out_time_ms=1089680000
out_time=00:18:09.680000
dup_frames=0
drop_frames=0
speed=1.27x
progress=continue
frame=27416 fps= 32 q=23.0 size=  665600KiB time=00:18:16.68 bitrate=4971.9kbits/s speed=1.27x    
frame=27416
fps=31.72
stream_0_0_q=23.0
bitrate=4971.9kbits/s
total_size=681574448
out_time_us=1096680000
out_time_ms=1096680000
out_time=00:18:16.680000
dup_frames=0
drop_frames=0
speed=1.27x
progress=continue
frame=27549 fps= 32 q=23.0 size=  668672KiB time=00:18:22.00 bitrate=4970.7kbits/s speed=1.27x    
frame=27549
fps=31.68
stream_0_0_q=23.0
bitrate=4970.7kbits/s
total_size=684720176
out_time_us=1102000000
out_time_ms=1102000000
out_time=00:18:22.000000
dup_frames=0
drop_frames=0
speed=1.27x
progress=continue
frame=27679 fps= 32 q=23.0 size=  671744KiB time=00:18:27.20 bitrate=4970.1kbits/s speed=1.27x    
frame=27679
fps=31.65
stream_0_0_q=23.0
bitrate=4970.1kbits/s
total_size=687865904
out_time_us=1107200000
out_time_ms=1107200000
out_time=00:18:27.200000
dup_frames=0
drop_frames=0
speed=1.27x
progress=continue
frame=27822 fps= 32 q=23.0 size=  674816KiB time=00:18:32.92 bitrate=4967.2kbits/s speed=1.27x    
frame=27822
fps=31.63
stream_0_0_q=23.0
bitrate=4967.2kbits/s
total_size=691011632
out_time_us=1112920000
out_time_ms=1112920000
out_time=00:18:32.920000
dup_frames=0
drop_frames=0
speed=1.27x
progress=continue
frame=27952 fps= 32 q=23.0 size=  677888KiB time=00:18:38.12 bitrate=4966.6kbits/s speed=1.26x    
frame=27952
fps=31.60
stream_0_0_q=23.0
bitrate=4966.6kbits/s
total_size=694157360
out_time_us=1118120000
out_time_ms=1118120000
out_time=00:18:38.120000
dup_frames=0
drop_frames=0
speed=1.26x
progress=continue
frame=28072 fps= 32 q=23.0 size=  681216KiB time=00:18:42.92 bitrate=4969.7kbits/s speed=1.26x    
frame=28072
fps=31.56
stream_0_0_q=23.0
bitrate=4969.7kbits/s
total_size=697565232
out_time_us=1122920000
out_time_ms=1122920000
out_time=00:18:42.920000
dup_frames=0
drop_frames=0
speed=1.26x
progress=continue
frame=28266 fps= 32 q=23.0 size=  684800KiB time=00:18:50.68 bitrate=4961.5kbits/s speed=1.26x    
frame=28266
fps=31.60
stream_0_0_q=23.0
bitrate=4961.5kbits/s
total_size=701235248
out_time_us=1130680000
out_time_ms=1130680000
out_time=00:18:50.680000
dup_frames=0
drop_frames=0
speed=1.26x
progress=continue
frame=28416 fps= 32 q=23.0 size=  687872KiB time=00:18:56.68 bitrate=4957.5kbits/s speed=1.26x    
frame=28416
fps=31.59
stream_0_0_q=23.0
bitrate=4957.5kbits/s
total_size=704380976
out_time_us=1136680000
out_time_ms=1136680000
out_time=00:18:56.680000
dup_frames=0
drop_frames=0
speed=1.26x
progress=continue
frame=28567 fps= 32 q=23.0 size=  690944KiB time=00:19:02.72 bitrate=4953.3kbits/s speed=1.26x    
frame=28567
fps=31.58
stream_0_0_q=23.0
bitrate=4953.3kbits/s
total_size=707526704
out_time_us=1142720000
out_time_ms=1142720000
out_time=00:19:02.720000
dup_frames=0
drop_frames=0
speed=1.26x
progress=continue
frame=28764 fps= 32 q=23.0 size=  693760KiB time=00:19:10.60 bitrate=4939.4kbits/s speed=1.26x    
frame=28764
fps=31.62
stream_0_0_q=23.0
bitrate=4939.4kbits/s
total_size=710410288
out_time_us=1150600000
out_time_ms=1150600000
out_time=00:19:10.600000
dup_frames=0
drop_frames=0
speed=1.26x
progress=continue
frame=28889 fps= 32 q=23.0 size=  696832KiB time=00:19:15.60 bitrate=4939.8kbits/s speed=1.26x    
frame=28889
fps=31.58
stream_0_0_q=23.0
bitrate=4939.8kbits/s
total_size=713556016
out_time_us=1155600000
out_time_ms=1155600000
out_time=00:19:15.600000
dup_frames=0
drop_frames=0
speed=1.26x
progress=continue
frame=29011 fps= 32 q=23.0 size=  700160KiB time=00:19:20.48 bitrate=4942.5kbits/s speed=1.26x    
frame=29011
fps=31.54
stream_0_0_q=23.0
bitrate=4942.5kbits/s
total_size=716963888
out_time_us=1160480000
out_time_ms=1160480000
out_time=00:19:20.480000
dup_frames=0
drop_frames=0
speed=1.26x
progress=continue
frame=29146 fps= 32 q=23.0 size=  702976KiB time=00:19:25.88 bitrate=4939.4kbits/s speed=1.26x    
frame=29146
fps=31.52
stream_0_0_q=23.0
bitrate=4939.4kbits/s
total_size=719847472
out_time_us=1165880000
out_time_ms=1165880000
out_time=00:19:25.880000
dup_frames=0
drop_frames=0
speed=1.26x
progress=continue
frame=29272 fps= 31 q=23.0 size=  706304KiB time=00:19:30.92 bitrate=4941.5kbits/s speed=1.26x    
frame=29272
fps=31.48
stream_0_0_q=23.0
bitrate=4941.5kbits/s
total_size=723255344
out_time_us=1170920000
out_time_ms=1170920000
out_time=00:19:30.920000
dup_frames=0
drop_frames=0
speed=1.26x
progress=continue
frame=29416 fps= 31 q=23.0 size=  709376KiB time=00:19:36.68 bitrate=4938.6kbits/s speed=1.26x    
frame=29416
fps=31.47
stream_0_0_q=23.0
bitrate=4938.6kbits/s
total_size=726401072
out_time_us=1176680000
out_time_ms=1176680000
out_time=00:19:36.680000
dup_frames=0
drop_frames=0
speed=1.26x
progress=continue
frame=29562 fps= 31 q=23.0 size=  712704KiB time=00:19:42.52 bitrate=4937.3kbits/s speed=1.26x    
frame=29562
fps=31.46
stream_0_0_q=23.0
bitrate=4937.3kbits/s
total_size=729808944
out_time_us=1182520000
out_time_ms=1182520000
out_time=00:19:42.520000
dup_frames=0
drop_frames=0
speed=1.26x
progress=continue
frame=29692 fps= 31 q=23.0 size=  716800KiB time=00:19:47.68 bitrate=4944.1kbits/s speed=1.26x    
frame=29692
fps=31.43
stream_0_0_q=23.0
bitrate=4944.1kbits/s
total_size=734003248
out_time_us=1187680000
out_time_ms=1187680000
out_time=00:19:47.680000
dup_frames=0
drop_frames=0
speed=1.26x
progress=continue
frame=29814 fps= 31 q=23.0 size=  721152KiB time=00:19:52.60 bitrate=4953.6kbits/s speed=1.26x    
frame=29814
fps=31.39
stream_0_0_q=23.0
bitrate=4953.6kbits/s
total_size=738459696
out_time_us=1192600000
out_time_ms=1192600000
out_time=00:19:52.600000
dup_frames=0
drop_frames=0
speed=1.26x
progress=continue
frame=29936 fps= 31 q=23.0 size=  725248KiB time=00:19:57.48 bitrate=4961.4kbits/s speed=1.25x    
frame=29936
fps=31.35
stream_0_0_q=23.0
bitrate=4961.4kbits/s
total_size=742654000
out_time_us=1197480000
out_time_ms=1197480000
out_time=00:19:57.480000
dup_frames=0
drop_frames=0
speed=1.25x
progress=continue
frame=30060 fps= 31 q=23.0 size=  730368KiB time=00:20:02.44 bitrate=4975.9kbits/s speed=1.25x    
frame=30060
fps=31.31
stream_0_0_q=23.0
bitrate=4975.9kbits/s
total_size=747896880
out_time_us=1202440000
out_time_ms=1202440000
out_time=00:20:02.440000
dup_frames=0
drop_frames=0
speed=1.25x
progress=continue
frame=30193 fps= 31 q=23.0 size=  735744KiB time=00:20:07.72 bitrate=4990.6kbits/s speed=1.25x    
frame=30193
fps=31.29
stream_0_0_q=23.0
bitrate=4990.6kbits/s
total_size=753401904
out_time_us=1207720000
out_time_ms=1207720000
out_time=00:20:07.720000
dup_frames=0
drop_frames=0
speed=1.25x
progress=continue
frame=30323 fps= 31 q=23.0 size=  740864KiB time=00:20:12.84 bitrate=5004.1kbits/s speed=1.25x    
frame=30323
fps=31.26
stream_0_0_q=23.0
bitrate=5004.1kbits/s
total_size=758644784
out_time_us=1212840000
out_time_ms=1212840000
out_time=00:20:12.840000
dup_frames=0
drop_frames=0
speed=1.25x
progress=continue
frame=30448 fps= 31 q=23.0 size=  744704KiB time=00:20:17.96 bitrate=5008.9kbits/s speed=1.25x    
frame=30448
fps=31.22
stream_0_0_q=23.0
bitrate=5008.9kbits/s
total_size=762576944
out_time_us=1217960000
out_time_ms=1217960000
out_time=00:20:17.960000
dup_frames=0
drop_frames=0
speed=1.25x
progress=continue
frame=30566 fps= 31 q=23.0 size=  749568KiB time=00:20:22.68 bitrate=5022.1kbits/s speed=1.25x    
frame=30566
fps=31.18
stream_0_0_q=23.0
bitrate=5022.1kbits/s
total_size=767557680
out_time_us=1222680000
out_time_ms=1222680000
out_time=00:20:22.680000
dup_frames=0
drop_frames=0
speed=1.25x
progress=continue
frame=30697 fps= 31 q=23.0 size=  755456KiB time=00:20:27.92 bitrate=5040.0kbits/s speed=1.25x    
frame=30697
fps=31.16
stream_0_0_q=23.0
bitrate=5040.0kbits/s
total_size=773586992
out_time_us=1227920000
out_time_ms=1227920000
out_time=00:20:27.920000
dup_frames=0
drop_frames=0
speed=1.25x
progress=continue
frame=30816 fps= 31 q=23.0 size=  759552KiB time=00:20:32.64 bitrate=5047.9kbits/s speed=1.24x    
frame=30816
fps=31.12
stream_0_0_q=23.0
bitrate=5047.9kbits/s
total_size=777781296
out_time_us=1232640000
out_time_ms=1232640000
out_time=00:20:32.640000
dup_frames=0
drop_frames=0
speed=1.24x
progress=continue
frame=30934 fps= 31 q=23.0 size=  762880KiB time=00:20:37.40 bitrate=5050.5kbits/s speed=1.24x    
frame=30934
fps=31.08
stream_0_0_q=23.0
bitrate=5050.5kbits/s
total_size=781189168
out_time_us=1237400000
out_time_ms=1237400000
out_time=00:20:37.400000
dup_frames=0
drop_frames=0
speed=1.24x
progress=continue
frame=31056 fps= 31 q=23.0 size=  766720KiB time=00:20:42.28 bitrate=5056.0kbits/s speed=1.24x    
frame=31056
fps=31.05
stream_0_0_q=23.0
bitrate=5056.0kbits/s
total_size=785121328
out_time_us=1242280000
out_time_ms=1242280000
out_time=00:20:42.280000
dup_frames=0
drop_frames=0
speed=1.24x
progress=continue
frame=31164 fps= 31 q=23.0 size=  770816KiB time=00:20:46.60 bitrate=5065.4kbits/s speed=1.24x    
frame=31164
fps=31.00
stream_0_0_q=23.0
bitrate=5065.4kbits/s
total_size=789315632
out_time_us=1246600000
out_time_ms=1246600000
out_time=00:20:46.600000
dup_frames=0
drop_frames=0
speed=1.24x
progress=continue
frame=31274 fps= 31 q=23.0 size=  774400KiB time=00:20:50.96 bitrate=5071.2kbits/s speed=1.24x    
frame=31274
fps=30.96
stream_0_0_q=23.0
bitrate=5071.2kbits/s
total_size=792985648
out_time_us=1250960000
out_time_ms=1250960000
out_time=00:20:50.960000
dup_frames=0
drop_frames=0
speed=1.24x
progress=continue
frame=31392 fps= 31 q=23.0 size=  778496KiB time=00:20:55.68 bitrate=5078.9kbits/s speed=1.24x    
frame=31392
fps=30.92
stream_0_0_q=23.0
bitrate=5078.9kbits/s
total_size=797179952
out_time_us=1255680000
out_time_ms=1255680000
out_time=00:20:55.680000
dup_frames=0
drop_frames=0
speed=1.24x
progress=continue
frame=31517 fps= 31 q=23.0 size=  784128KiB time=00:21:00.72 bitrate=5095.2kbits/s speed=1.24x    
frame=31517
fps=30.89
stream_0_0_q=23.0
bitrate=5095.2kbits/s
total_size=802947120
out_time_us=1260720000
out_time_ms=1260720000
out_time=00:21:00.720000
dup_frames=0
drop_frames=0
speed=1.24x
progress=continue
frame=31645 fps= 31 q=23.0 size=  788224KiB time=00:21:05.84 bitrate=5101.1kbits/s speed=1.23x    
frame=31645
fps=30.86
stream_0_0_q=23.0
bitrate=5101.1kbits/s
total_size=807141424
out_time_us=1265840000
out_time_ms=1265840000
out_time=00:21:05.840000
dup_frames=0
drop_frames=0
speed=1.23x
progress=continue
frame=31760 fps= 31 q=23.0 size=  792320KiB time=00:21:10.44 bitrate=5109.0kbits/s speed=1.23x    
frame=31760
fps=30.82
stream_0_0_q=23.0
bitrate=5109.0kbits/s
total_size=811335728
out_time_us=1270440000
out_time_ms=1270440000
out_time=00:21:10.440000
dup_frames=0
drop_frames=0
speed=1.23x
progress=continue
frame=31881 fps= 31 q=23.0 size=  796928KiB time=00:21:15.20 bitrate=5119.5kbits/s speed=1.23x    
frame=31881
fps=30.79
stream_0_0_q=23.0
bitrate=5119.5kbits/s
total_size=816054320
out_time_us=1275200000
out_time_ms=1275200000
out_time=00:21:15.200000
dup_frames=0
drop_frames=0
speed=1.23x
progress=continue
frame=31998 fps= 31 q=23.0 size=  802816KiB time=00:21:19.84 bitrate=5138.7kbits/s speed=1.23x    
frame=31998
fps=30.75
stream_0_0_q=23.0
bitrate=5138.7kbits/s
total_size=822083632
out_time_us=1279840000
out_time_ms=1279840000
out_time=00:21:19.840000
dup_frames=0
drop_frames=0
speed=1.23x
progress=continue
frame=32117 fps= 31 q=23.0 size=  808960KiB time=00:21:24.72 bitrate=5158.3kbits/s speed=1.23x    
frame=32117
fps=30.71
stream_0_0_q=23.0
bitrate=5158.3kbits/s
total_size=828375088
out_time_us=1284720000
out_time_ms=1284720000
out_time=00:21:24.720000
dup_frames=0
drop_frames=0
speed=1.23x
progress=continue
frame=32236 fps= 31 q=23.0 size=  814592KiB time=00:21:29.48 bitrate=5175.1kbits/s speed=1.23x    
frame=32236
fps=30.68
stream_0_0_q=23.0
bitrate=5175.1kbits/s
total_size=834142256
out_time_us=1289480000
out_time_ms=1289480000
out_time=00:21:29.480000
dup_frames=0
drop_frames=0
speed=1.23x
progress=continue
frame=32345 fps= 31 q=23.0 size=  818432KiB time=00:21:33.80 bitrate=5182.1kbits/s speed=1.23x    
frame=32345
fps=30.63
stream_0_0_q=23.0
bitrate=5182.1kbits/s
total_size=838074416
out_time_us=1293800000
out_time_ms=1293800000
out_time=00:21:33.800000
dup_frames=0
drop_frames=0
speed=1.23x
progress=continue
frame=32448 fps= 31 q=23.0 size=  823808KiB time=00:21:37.88 bitrate=5199.7kbits/s speed=1.22x    
frame=32448
fps=30.58
stream_0_0_q=23.0
bitrate=5199.7kbits/s
total_size=843579440
out_time_us=1297880000
out_time_ms=1297880000
out_time=00:21:37.880000
dup_frames=0
drop_frames=0
speed=1.22x
progress=continue
frame=32549 fps= 31 q=23.0 size=  828672KiB time=00:21:41.96 bitrate=5214.0kbits/s speed=1.22x    
frame=32549
fps=30.53
stream_0_0_q=23.0
bitrate=5214.0kbits/s
total_size=848560176
out_time_us=1301960000
out_time_ms=1301960000
out_time=00:21:41.960000
dup_frames=0
drop_frames=0
speed=1.22x
progress=continue
frame=32654 fps= 30 q=23.0 size=  833792KiB time=00:21:46.20 bitrate=5229.2kbits/s speed=1.22x    
frame=32654
fps=30.49
stream_0_0_q=23.0
bitrate=5229.2kbits/s
total_size=853803056
out_time_us=1306200000
out_time_ms=1306200000
out_time=00:21:46.200000
dup_frames=0
drop_frames=0
speed=1.22x
progress=continue
frame=32755 fps= 30 q=23.0 size=  838400KiB time=00:21:50.24 bitrate=5241.9kbits/s speed=1.22x    
frame=32755
fps=30.44
stream_0_0_q=23.0
bitrate=5241.9kbits/s
total_size=858521648
out_time_us=1310240000
out_time_ms=1310240000
out_time=00:21:50.240000
dup_frames=0
drop_frames=0
speed=1.22x
progress=continue
frame=32868 fps= 30 q=23.0 size=  842496KiB time=00:21:54.76 bitrate=5249.4kbits/s speed=1.22x    
frame=32868
fps=30.40
stream_0_0_q=23.0
bitrate=5249.4kbits/s
total_size=862715952
out_time_us=1314760000
out_time_ms=1314760000
out_time=00:21:54.760000
dup_frames=0
drop_frames=0
speed=1.22x
progress=continue
frame=32984 fps= 30 q=23.0 size=  846848KiB time=00:21:59.32 bitrate=5258.3kbits/s speed=1.21x    
frame=32984
fps=30.37
stream_0_0_q=23.0
bitrate=5258.3kbits/s
total_size=867172400
out_time_us=1319320000
out_time_ms=1319320000
out_time=00:21:59.320000
dup_frames=0
drop_frames=0
speed=1.21x
progress=continue
frame=33095 fps= 30 q=23.0 size=  850944KiB time=00:22:03.84 bitrate=5265.7kbits/s speed=1.21x    
frame=33095
fps=30.33
stream_0_0_q=23.0
bitrate=5265.7kbits/s
total_size=871366704
out_time_us=1323840000
out_time_ms=1323840000
out_time=00:22:03.840000
dup_frames=0
drop_frames=0
speed=1.21x
progress=continue
frame=33207 fps= 30 q=23.0 size=  855040KiB time=00:22:08.32 bitrate=5273.2kbits/s speed=1.21x    
frame=33207
fps=30.29
stream_0_0_q=23.0
bitrate=5273.2kbits/s
total_size=875561008
out_time_us=1328320000
out_time_ms=1328320000
out_time=00:22:08.320000
dup_frames=0
drop_frames=0
speed=1.21x
progress=continue
frame=33323 fps= 30 q=23.0 size=  859392KiB time=00:22:12.88 bitrate=5281.9kbits/s speed=1.21x    
frame=33323
fps=30.26
stream_0_0_q=23.0
bitrate=5281.9kbits/s
total_size=880017456
out_time_us=1332880000
out_time_ms=1332880000
out_time=00:22:12.880000
dup_frames=0
drop_frames=0
speed=1.21x
progress=continue
frame=33428 fps= 30 q=23.0 size=  863744KiB time=00:22:17.16 bitrate=5291.7kbits/s speed=1.21x    
frame=33428
fps=30.21
stream_0_0_q=23.0
bitrate=5291.7kbits/s
total_size=884473904
out_time_us=1337160000
out_time_ms=1337160000
out_time=00:22:17.160000
dup_frames=0
drop_frames=0
speed=1.21x
progress=continue
frame=33538 fps= 30 q=23.0 size=  868096KiB time=00:22:21.56 bitrate=5300.9kbits/s speed=1.21x    
frame=33538
fps=30.18
stream_0_0_q=23.0
bitrate=5300.9kbits/s
total_size=888930352
out_time_us=1341560000
out_time_ms=1341560000
out_time=00:22:21.560000
dup_frames=0
drop_frames=0
speed=1.21x
progress=continue
frame=33655 fps= 30 q=23.0 size=  872960KiB time=00:22:26.24 bitrate=5312.0kbits/s speed=1.21x    
frame=33655
fps=30.14
stream_0_0_q=23.0
bitrate=5312.0kbits/s
total_size=893911088
out_time_us=1346240000
out_time_ms=1346240000
out_time=00:22:26.240000
dup_frames=0
drop_frames=0
speed=1.21x
progress=continue
frame=33757 fps= 30 q=23.0 size=  877056KiB time=00:22:30.32 bitrate=5320.8kbits/s speed= 1.2x    
frame=33757
fps=30.10
stream_0_0_q=23.0
bitrate=5320.8kbits/s
total_size=898105392
out_time_us=1350320000
out_time_ms=1350320000
out_time=00:22:30.320000
dup_frames=0
drop_frames=0
speed= 1.2x
progress=continue
frame=33868 fps= 30 q=23.0 size=  881408KiB time=00:22:34.72 bitrate=5329.9kbits/s speed= 1.2x    
frame=33868
fps=30.06
stream_0_0_q=23.0
bitrate=5329.9kbits/s
total_size=902561840
out_time_us=1354720000
out_time_ms=1354720000
out_time=00:22:34.720000
dup_frames=0
drop_frames=0
speed= 1.2x
progress=continue
frame=33973 fps= 30 q=23.0 size=  885760KiB time=00:22:38.96 bitrate=5339.5kbits/s speed= 1.2x    
frame=33973
fps=30.02
stream_0_0_q=23.0
bitrate=5339.5kbits/s
total_size=907018288
out_time_us=1358960000
out_time_ms=1358960000
out_time=00:22:38.960000
dup_frames=0
drop_frames=0
speed= 1.2x
progress=continue
frame=34071 fps= 30 q=23.0 size=  889600KiB time=00:22:42.88 bitrate=5347.2kbits/s speed= 1.2x    
frame=34071
fps=29.98
stream_0_0_q=23.0
bitrate=5347.2kbits/s
total_size=910950448
out_time_us=1362880000
out_time_ms=1362880000
out_time=00:22:42.880000
dup_frames=0
drop_frames=0
speed= 1.2x
progress=continue
frame=34178 fps= 30 q=23.0 size=  893696KiB time=00:22:47.12 bitrate=5355.2kbits/s speed= 1.2x    
frame=34178
fps=29.94
stream_0_0_q=23.0
bitrate=5355.2kbits/s
total_size=915144752
out_time_us=1367120000
out_time_ms=1367120000
out_time=00:22:47.120000
dup_frames=0
drop_frames=0
speed= 1.2x
progress=continue
frame=34292 fps= 30 q=23.0 size=  897536KiB time=00:22:51.72 bitrate=5360.1kbits/s speed= 1.2x    
frame=34292
fps=29.91
stream_0_0_q=23.0
bitrate=5360.1kbits/s
total_size=919076912
out_time_us=1371720000
out_time_ms=1371720000
out_time=00:22:51.720000
dup_frames=0
drop_frames=0
speed= 1.2x
progress=continue
frame=34396 fps= 30 q=23.0 size=  902144KiB time=00:22:55.88 bitrate=5371.4kbits/s speed=1.19x    
frame=34396
fps=29.87
stream_0_0_q=23.0
bitrate=5371.4kbits/s
total_size=923795504
out_time_us=1375880000
out_time_ms=1375880000
out_time=00:22:55.880000
dup_frames=0
drop_frames=0
speed=1.19x
progress=continue
frame=34507 fps= 30 q=23.0 size=  907008KiB time=00:23:00.32 bitrate=5383.0kbits/s speed=1.19x    
frame=34507
fps=29.83
stream_0_0_q=23.0
bitrate=5383.0kbits/s
total_size=928776240
out_time_us=1380320000
out_time_ms=1380320000
out_time=00:23:00.320000
dup_frames=0
drop_frames=0
speed=1.19x
progress=continue
frame=34618 fps= 30 q=23.0 size=  913152KiB time=00:23:04.76 bitrate=5402.0kbits/s speed=1.19x    
frame=34618
fps=29.80
stream_0_0_q=23.0
bitrate=5402.0kbits/s
total_size=935067696
out_time_us=1384760000
out_time_ms=1384760000
out_time=00:23:04.760000
dup_frames=0
drop_frames=0
speed=1.19x
progress=continue
frame=34737 fps= 30 q=23.0 size=  919296KiB time=00:23:09.52 bitrate=5419.8kbits/s speed=1.19x    
frame=34737
fps=29.77
stream_0_0_q=23.0
bitrate=5419.8kbits/s
total_size=941359152
out_time_us=1389520000
out_time_ms=1389520000
out_time=00:23:09.520000
dup_frames=0
drop_frames=0
speed=1.19x
progress=continue
frame=34842 fps= 30 q=23.0 size=  926720KiB time=00:23:13.72 bitrate=5447.1kbits/s speed=1.19x    
frame=34842
fps=29.73
stream_0_0_q=23.0
bitrate=5447.1kbits/s
total_size=948961328
out_time_us=1393720000
out_time_ms=1393720000
out_time=00:23:13.720000
dup_frames=0
drop_frames=0
speed=1.19x
progress=continue
frame=34954 fps= 30 q=23.0 size=  933376KiB time=00:23:18.16 bitrate=5468.8kbits/s speed=1.19x    
frame=34954
fps=29.70
stream_0_0_q=23.0
bitrate=5468.8kbits/s
total_size=955777072
out_time_us=1398160000
out_time_ms=1398160000
out_time=00:23:18.160000
dup_frames=0
drop_frames=0
speed=1.19x
progress=continue
frame=35064 fps= 30 q=23.0 size=  937984KiB time=00:23:22.56 bitrate=5478.5kbits/s speed=1.19x    
frame=35064
fps=29.67
stream_0_0_q=23.0
bitrate=5478.5kbits/s
total_size=960495664
out_time_us=1402560000
out_time_ms=1402560000
out_time=00:23:22.560000
dup_frames=0
drop_frames=0
speed=1.19x
progress=continue
frame=35242 fps= 30 q=23.0 size=  942336KiB time=00:23:29.72 bitrate=5476.0kbits/s speed=1.19x    
frame=35242
fps=29.69
stream_0_0_q=23.0
bitrate=5476.0kbits/s
total_size=964952112
out_time_us=1409720000
out_time_ms=1409720000
out_time=00:23:29.720000
dup_frames=0
drop_frames=0
speed=1.19x
progress=continue
frame=35367 fps= 30 q=23.0 size=  946944KiB time=00:23:34.72 bitrate=5483.3kbits/s speed=1.19x    
frame=35367
fps=29.67
stream_0_0_q=23.0
bitrate=5483.3kbits/s
total_size=969670704
out_time_us=1414720000
out_time_ms=1414720000
out_time=00:23:34.720000
dup_frames=0
drop_frames=0
speed=1.19x
progress=continue
frame=35484 fps= 30 q=23.0 size=  952576KiB time=00:23:39.40 bitrate=5497.7kbits/s speed=1.19x    
frame=35484
fps=29.64
stream_0_0_q=23.0
bitrate=5497.7kbits/s
total_size=975437872
out_time_us=1419400000
out_time_ms=1419400000
out_time=00:23:39.400000
dup_frames=0
drop_frames=0
speed=1.19x
progress=continue
frame=35598 fps= 30 q=23.0 size=  956672KiB time=00:23:43.96 bitrate=5503.7kbits/s speed=1.18x    
frame=35598
fps=29.61
stream_0_0_q=23.0
bitrate=5503.7kbits/s
total_size=979632176
out_time_us=1423960000
out_time_ms=1423960000
out_time=00:23:43.960000
dup_frames=0
drop_frames=0
speed=1.18x
progress=continue
frame=35724 fps= 30 q=23.0 size=  961536KiB time=00:23:48.96 bitrate=5512.3kbits/s speed=1.18x    
frame=35724
fps=29.59
stream_0_0_q=23.0
bitrate=5512.3kbits/s
total_size=984612912
out_time_us=1428960000
out_time_ms=1428960000
out_time=00:23:48.960000
dup_frames=0
drop_frames=0
speed=1.18x
progress=continue
frame=35823 fps= 30 q=23.0 size=  969984KiB time=00:23:52.96 bitrate=5545.2kbits/s speed=1.18x    
frame=35823
fps=29.55
stream_0_0_q=23.0
bitrate=5545.2kbits/s
total_size=993263664
out_time_us=1432960000
out_time_ms=1432960000
out_time=00:23:52.960000
dup_frames=0
drop_frames=0
speed=1.18x
progress=continue
frame=35957 fps= 30 q=23.0 size=  975616KiB time=00:23:58.32 bitrate=5556.7kbits/s speed=1.18x    
frame=35957
fps=29.54
stream_0_0_q=23.0
bitrate=5556.7kbits/s
total_size=999030832
out_time_us=1438320000
out_time_ms=1438320000
out_time=00:23:58.320000
dup_frames=0
drop_frames=0
speed=1.18x
progress=continue
frame=36105 fps= 30 q=23.0 size=  980480KiB time=00:24:04.24 bitrate=5561.5kbits/s speed=1.18x    
frame=36105
fps=29.54
stream_0_0_q=23.0
bitrate=5561.5kbits/s
total_size=1004011568
out_time_us=1444240000
out_time_ms=1444240000
out_time=00:24:04.240000
dup_frames=0
drop_frames=0
speed=1.18x
progress=continue
frame=36239 fps= 30 q=23.0 size=  986624KiB time=00:24:09.60 bitrate=5575.6kbits/s speed=1.18x    
frame=36239
fps=29.53
stream_0_0_q=23.0
bitrate=5575.6kbits/s
total_size=1010303024
out_time_us=1449600000
out_time_ms=1449600000
out_time=00:24:09.600000
dup_frames=0
drop_frames=0
speed=1.18x
progress=continue
frame=36372 fps= 30 q=23.0 size=  992768KiB time=00:24:14.92 bitrate=5589.8kbits/s speed=1.18x    
frame=36372
fps=29.51
stream_0_0_q=23.0
bitrate=5589.8kbits/s
total_size=1016594480
out_time_us=1454920000
out_time_ms=1454920000
out_time=00:24:14.920000
dup_frames=0
drop_frames=0
speed=1.18x
progress=continue
frame=36514 fps= 30 q=23.0 size=  998400KiB time=00:24:20.52 bitrate=5600.0kbits/s speed=1.18x    
frame=36514
fps=29.51
stream_0_0_q=23.0
bitrate=5600.0kbits/s
total_size=1022361648
out_time_us=1460520000
out_time_ms=1460520000
out_time=00:24:20.520000
dup_frames=0
drop_frames=0
speed=1.18x
progress=continue
frame=36606 fps= 29 q=23.0 size= 1004288KiB time=00:24:24.28 bitrate=5618.5kbits/s speed=1.18x    
frame=36606
fps=29.46
stream_0_0_q=23.0
bitrate=5618.5kbits/s
total_size=1028390960
out_time_us=1464280000
out_time_ms=1464280000
out_time=00:24:24.280000
dup_frames=0
drop_frames=0
speed=1.18x
progress=continue
frame=36732 fps= 29 q=23.0 size= 1009408KiB time=00:24:29.32 bitrate=5627.8kbits/s speed=1.18x    
frame=36732
fps=29.45
stream_0_0_q=23.0
bitrate=5627.8kbits/s
total_size=1033633840
out_time_us=1469320000
out_time_ms=1469320000
out_time=00:24:29.320000
dup_frames=0
drop_frames=0
speed=1.18x
progress=continue
frame=36858 fps= 29 q=23.0 size= 1014272KiB time=00:24:34.36 bitrate=5635.6kbits/s speed=1.18x    
frame=36858
fps=29.43
stream_0_0_q=23.0
bitrate=5635.6kbits/s
total_size=1038614576
out_time_us=1474360000
out_time_ms=1474360000
out_time=00:24:34.360000
dup_frames=0
drop_frames=0
speed=1.18x
progress=continue
frame=36980 fps= 29 q=23.0 size= 1019136KiB time=00:24:39.24 bitrate=5644.0kbits/s speed=1.18x    
frame=36980
fps=29.41
stream_0_0_q=23.0
bitrate=5644.0kbits/s
total_size=1043595312
out_time_us=1479240000
out_time_ms=1479240000
out_time=00:24:39.240000
dup_frames=0
drop_frames=0
speed=1.18x
progress=continue
frame=37090 fps= 29 q=20.0 size= 1025792KiB time=00:24:43.64 bitrate=5664.0kbits/s speed=1.18x    
frame=37090
fps=29.38
stream_0_0_q=20.0
bitrate=5664.0kbits/s
total_size=1050411056
out_time_us=1483640000
out_time_ms=1483640000
out_time=00:24:43.640000
dup_frames=0
drop_frames=0
speed=1.18x
progress=continue
frame=37218 fps= 29 q=23.0 size= 1030144KiB time=00:24:48.76 bitrate=5668.4kbits/s speed=1.17x    
frame=37218
fps=29.36
stream_0_0_q=23.0
bitrate=5668.4kbits/s
total_size=1054867504
out_time_us=1488760000
out_time_ms=1488760000
out_time=00:24:48.760000
dup_frames=0
drop_frames=0
speed=1.17x
progress=continue
frame=37329 fps= 29 q=23.0 size= 1036800KiB time=00:24:53.20 bitrate=5688.1kbits/s speed=1.17x    
frame=37329
fps=29.33
stream_0_0_q=23.0
bitrate=5688.1kbits/s
total_size=1061683248
out_time_us=1493200000
out_time_ms=1493200000
out_time=00:24:53.200000
dup_frames=0
drop_frames=0
speed=1.17x
progress=continue
frame=37452 fps= 29 q=23.0 size= 1041664KiB time=00:24:58.12 bitrate=5696.0kbits/s speed=1.17x    
frame=37452
fps=29.31
stream_0_0_q=23.0
bitrate=5696.0kbits/s
total_size=1066663984
out_time_us=1498120000
out_time_ms=1498120000
out_time=00:24:58.120000
dup_frames=0
drop_frames=0
speed=1.17x
progress=continue
frame=37599 fps= 29 q=23.0 size= 1046272KiB time=00:25:03.92 bitrate=5699.1kbits/s speed=1.17x    
frame=37599
fps=29.31
stream_0_0_q=23.0
bitrate=5699.1kbits/s
total_size=1071382576
out_time_us=1503920000
out_time_ms=1503920000
out_time=00:25:03.920000
dup_frames=0
drop_frames=0
speed=1.17x
progress=continue
frame=37728 fps= 29 q=23.0 size= 1051136KiB time=00:25:09.16 bitrate=5705.8kbits/s speed=1.17x    
frame=37728
fps=29.30
stream_0_0_q=23.0
bitrate=5705.8kbits/s
total_size=1076363312
out_time_us=1509160000
out_time_ms=1509160000
out_time=00:25:09.160000
dup_frames=0
drop_frames=0
speed=1.17x
progress=continue
frame=37845 fps= 29 q=23.0 size= 1056768KiB time=00:25:13.84 bitrate=5718.6kbits/s speed=1.17x    
frame=37845
fps=29.28
stream_0_0_q=23.0
bitrate=5718.6kbits/s
total_size=1082130480
out_time_us=1513840000
out_time_ms=1513840000
out_time=00:25:13.840000
dup_frames=0
drop_frames=0
speed=1.17x
progress=continue
frame=37973 fps= 29 q=23.0 size= 1061888KiB time=00:25:18.96 bitrate=5726.9kbits/s speed=1.17x    
frame=37973
fps=29.26
stream_0_0_q=23.0
bitrate=5726.9kbits/s
total_size=1087373360
out_time_us=1518960000
out_time_ms=1518960000
out_time=00:25:18.960000
dup_frames=0
drop_frames=0
speed=1.17x
progress=continue
frame=38094 fps= 29 q=23.0 size= 1066752KiB time=00:25:23.80 bitrate=5734.9kbits/s speed=1.17x    
frame=38094
fps=29.24
stream_0_0_q=23.0
bitrate=5734.9kbits/s
total_size=1092354096
out_time_us=1523800000
out_time_ms=1523800000
out_time=00:25:23.800000
dup_frames=0
drop_frames=0
speed=1.17x
progress=continue
frame=38222 fps= 29 q=23.0 size= 1072128KiB time=00:25:28.84 bitrate=5744.8kbits/s speed=1.17x    
frame=38222
fps=29.23
stream_0_0_q=23.0
bitrate=5744.8kbits/s
total_size=1097859120
out_time_us=1528840000
out_time_ms=1528840000
out_time=00:25:28.840000
dup_frames=0
drop_frames=0
speed=1.17x
progress=continue
frame=38338 fps= 29 q=23.0 size= 1076480KiB time=00:25:33.56 bitrate=5750.4kbits/s speed=1.17x    
frame=38338
fps=29.20
stream_0_0_q=23.0
bitrate=5750.4kbits/s
total_size=1102315568
out_time_us=1533560000
out_time_ms=1533560000
out_time=00:25:33.560000
dup_frames=0
drop_frames=0
speed=1.17x
progress=continue
frame=38471 fps= 29 q=23.0 size= 1081088KiB time=00:25:38.88 bitrate=5755.0kbits/s speed=1.17x    
frame=38471
fps=29.19
stream_0_0_q=23.0
bitrate=5755.0kbits/s
total_size=1107034160
out_time_us=1538880000
out_time_ms=1538880000
out_time=00:25:38.880000
dup_frames=0
drop_frames=0
speed=1.17x
progress=continue
frame=38579 fps= 29 q=23.0 size= 1088512KiB time=00:25:43.20 bitrate=5778.3kbits/s speed=1.17x    
frame=38579
fps=29.16
stream_0_0_q=23.0
bitrate=5778.3kbits/s
total_size=1114636336
out_time_us=1543200000
out_time_ms=1543200000
out_time=00:25:43.200000
dup_frames=0
drop_frames=0
speed=1.17x
progress=continue
frame=38692 fps= 29 q=23.0 size= 1096192KiB time=N/A bitrate=N/A speed=N/A    
frame=38692
fps=29.14
stream_0_0_q=23.0
bitrate=N/A
total_size=1122500656
out_time_us=N/A
out_time_ms=N/A
out_time=N/A
dup_frames=0
drop_frames=0
speed=N/A
progress=continue
[mp4 @ 000001d2d3dc8a80] Starting second pass: moving the moov atom to the beginning of the file
[out#0/mp4 @ 000001d2d3dccb80] video:1062373KiB audio:36514KiB subtitle:0KiB other streams:0KiB global headers:0KiB muxing overhead: 0.081716%
frame=38734 fps= 29 q=-1.0 Lsize= 1099785KiB time=00:25:49.40 bitrate=5814.8kbits/s speed=1.16x    
frame=38734
fps=29.12
stream_0_0_q=-1.0
bitrate=5814.8kbits/s
total_size=1126179494
out_time_us=1549400000
out_time_ms=1549400000
out_time=00:25:49.400000
dup_frames=0
drop_frames=0
speed=1.16x
progress=end
[libx264 @ 000001d2d5d01b40] frame I:1550  Avg QP:13.47  size:141336
[libx264 @ 000001d2d5d01b40] frame P:37184 Avg QP:17.24  size: 23365
[libx264 @ 000001d2d5d01b40] mb I  I16..4: 15.2% 66.6% 18.2%
[libx264 @ 000001d2d5d01b40] mb P  I16..4:  2.4%  7.0%  0.7%  P16..4: 32.0% 10.3%  4.5%  0.0%  0.0%    skip:43.1%
[libx264 @ 000001d2d5d01b40] 8x8 transform intra:68.7% inter:79.1%
[libx264 @ 000001d2d5d01b40] coded y,uvDC,uvAC intra: 52.2% 50.8% 23.1% inter: 14.8% 11.3% 0.3%
[libx264 @ 000001d2d5d01b40] i16 v,h,dc,p: 35% 20%  7% 38%
[libx264 @ 000001d2d5d01b40] i8 v,h,dc,ddl,ddr,vr,hd,vl,hu: 34% 18% 18%  4%  5%  6%  5%  6%  5%
[libx264 @ 000001d2d5d01b40] i4 v,h,dc,ddl,ddr,vr,hd,vl,hu: 39% 21% 10%  4%  7%  6%  5%  5%  3%
[libx264 @ 000001d2d5d01b40] i8c dc,h,v,p: 58% 17% 20%  5%
[libx264 @ 000001d2d5d01b40] Weighted P-Frames: Y:1.1% UV:0.6%
[libx264 @ 000001d2d5d01b40] ref P L0: 63.4%  9.4% 19.1%  8.1%  0.0%
[libx264 @ 000001d2d5d01b40] kb/s:5617.13
[aac @ 000001d2d6f2c940] Qavg: 1247.402
